<?xml version="1.0" standalone="no"?>
<!DOCTYPE svg PUBLIC "-//W3C//DTD SVG 20010904//EN"
 "http://www.w3.org/TR/2001/REC-SVG-20010904/DTD/svg10.dtd">
<svg version="1.0" xmlns="http://www.w3.org/2000/svg"
 width="1024.000000pt" height="1024.000000pt" viewBox="0 0 1024.000000 1024.000000"
 preserveAspectRatio="xMidYMid meet">

<g transform="translate(0.000000,1024.000000) scale(0.100000,-0.100000)"
fill="#000000" stroke="none">
<path d="M0 5120 l0 -5120 5120 0 5120 0 0 5120 0 5120 -5120 0 -5120 0 0
-5120z m6442 3744 c104 -58 198 -114 209 -123 19 -16 21 -30 26 -253 l6 -236
-27 -25 c-15 -14 -59 -42 -99 -62 -40 -21 -112 -61 -162 -90 -49 -29 -108 -62
-130 -73 l-40 -20 -29 20 c-15 12 -105 62 -199 113 -131 70 -175 99 -186 120
-10 21 -15 91 -19 255 -6 268 -21 237 156 329 156 81 245 131 257 142 20 20
55 5 237 -97z m-2416 63 c101 -52 151 -188 107 -289 -46 -102 -136 -165 -223
-155 -87 10 -146 55 -186 142 -29 62 -30 125 -3 185 27 60 54 88 114 117 40
19 61 23 106 20 31 -3 69 -12 85 -20z m3054 -205 c71 -37 101 -152 60 -231
-31 -62 -73 -91 -130 -91 -57 0 -99 29 -130 91 -40 78 -11 196 58 233 37 21
100 20 142 -2z m-3682 -38 c26 -17 61 -87 62 -121 0 -34 -35 -106 -68 -136
-59 -56 -150 -41 -200 33 -49 72 -10 199 72 236 36 16 99 11 134 -12z m1995
-45 c13 -6 31 -23 40 -39 32 -53 17 -108 -42 -164 l-31 -30 0 -488 c0 -439 -2
-489 -16 -495 -9 -3 -20 0 -25 8 -14 23 -11 903 3 935 11 24 10 28 -19 53 -39
32 -73 88 -73 119 0 31 25 77 52 96 26 19 77 21 111 5z m-440 -23 c86 -36 92
-161 11 -225 -15 -12 -39 -21 -53 -21 -55 0 -131 81 -131 140 0 37 36 89 73
105 41 18 60 18 100 1z m-2191 -113 c23 -21 23 -45 -1 -67 -18 -16 -20 -16
-40 5 -45 49 -8 106 41 62z m5303 -34 c37 -17 102 -51 144 -77 42 -26 117 -67
166 -93 242 -123 404 -211 415 -224 9 -11 11 -54 6 -169 -3 -85 -2 -157 2
-160 5 -3 5 -35 1 -73 -5 -37 -8 -108 -8 -157 -1 -73 2 -91 17 -103 9 -8 12
-12 6 -9 -12 6 -24 -100 -24 -217 0 -53 4 -75 18 -90 9 -11 12 -18 6 -14 -8 4
-13 -24 -17 -91 -12 -171 -10 -197 16 -216 14 -11 16 -15 5 -12 -24 7 -31 -51
-27 -208 4 -110 2 -123 -11 -111 -8 7 -46 29 -85 48 -38 20 -90 50 -115 66
-25 17 -48 31 -52 31 -5 0 -9 -84 -10 -187 l-2 -188 -5 192 c-4 105 -8 193
-11 196 -3 3 -37 21 -76 40 -39 20 -94 49 -123 66 -28 17 -54 31 -56 31 -3 0
-5 -45 -5 -100 0 -68 -4 -100 -11 -100 -8 0 -10 31 -7 104 l5 105 -51 26 c-27
14 -87 54 -133 88 l-83 61 1 121 c2 100 3 111 9 65 5 -30 8 -83 9 -116 1 -59
2 -62 39 -86 60 -41 148 -95 181 -112 l31 -17 0 149 0 149 -89 51 c-120 68
-174 103 -169 108 3 2 59 -25 127 -61 67 -36 124 -65 126 -65 3 0 5 66 5 148
l0 147 -75 39 c-67 35 -121 76 -101 76 4 0 40 -18 80 -40 40 -22 78 -40 84
-40 9 0 12 40 12 140 l0 140 -51 28 c-78 41 -172 105 -177 119 -3 12 139 -65
201 -108 l27 -20 0 148 0 148 -82 45 c-45 25 -101 60 -126 79 l-44 33 4 -115
c1 -63 0 -113 -4 -110 -5 2 -8 123 -8 269 0 216 2 264 14 264 7 0 44 -14 81
-31z m-2931 -65 c3 -9 6 -227 6 -486 l0 -469 -22 3 -23 3 -3 457 c-2 436 2
508 27 508 5 0 12 -7 15 -16z m-1174 -282 l0 -216 21 22 c11 12 56 40 100 62
44 23 83 48 86 57 11 27 56 63 77 60 10 -1 28 -14 39 -28 23 -32 12 -61 -31
-83 -23 -12 -30 -12 -45 -1 -16 11 -29 7 -98 -33 -44 -26 -91 -56 -106 -68
l-25 -20 98 -55 c55 -31 116 -61 137 -68 40 -14 47 -33 22 -68 -14 -20 -16
-20 -142 63 l-128 84 -6 -193 c-5 -175 -4 -194 13 -216 27 -35 24 -105 -4
-125 -31 -22 -41 -20 -77 10 -41 34 -44 92 -7 122 24 18 24 21 26 208 2 227 4
210 -17 192 -10 -9 -51 -32 -92 -53 -40 -20 -86 -50 -101 -67 -16 -17 -35 -28
-45 -26 -22 4 -40 31 -33 50 3 7 63 38 132 67 69 29 126 58 126 64 0 12 -17
24 -133 96 -65 40 -70 41 -103 29 -29 -10 -36 -10 -48 2 -27 29 -28 57 -2 86
23 27 25 28 51 14 15 -8 32 -25 38 -38 7 -14 39 -38 82 -59 38 -19 84 -46 102
-59 17 -13 34 -24 37 -24 3 0 6 101 6 223 0 123 3 227 7 230 3 4 15 0 25 -10
16 -15 18 -35 18 -231z m965 136 c3 -51 5 -255 3 -453 l-3 -360 -22 -3 -23 -3
0 436 c0 418 4 475 29 475 5 0 12 -42 16 -92z m-1300 72 c3 -5 1 -10 -4 -10
-6 0 -11 5 -11 10 0 6 2 10 4 10 3 0 8 -4 11 -10z m621 -5 c-3 -9 0 -15 9 -15
20 0 19 -16 -1 -24 -27 -11 -33 -7 -29 22 2 15 4 28 4 30 1 1 6 2 12 2 6 0 9
-7 5 -15z m-1571 -74 c31 -7 34 -9 13 -10 -15 0 -30 -5 -33 -11 -3 -5 -14 -10
-24 -10 -20 0 -75 -23 -103 -42 -14 -10 -21 -9 -38 7 -24 22 -19 28 38 44 23
6 42 16 42 21 0 12 50 12 105 1z m313 -22 c69 -15 192 -80 250 -133 93 -85
163 -204 209 -353 24 -78 27 -105 27 -228 0 -291 -84 -508 -268 -690 -91 -91
-170 -142 -271 -177 -260 -89 -491 -12 -696 233 -42 51 -97 170 -126 274 -12
44 -17 102 -17 215 -1 137 3 168 27 265 19 75 39 126 61 160 18 28 46 73 61
102 33 62 142 173 216 219 65 41 183 92 269 116 67 18 164 17 258 -3z m4524 2
c11 -4 -27 -12 -88 -19 -97 -12 -110 -11 -153 5 l-46 18 50 6 c55 7 208 1 237
-10z m-227 -35 c40 -12 40 -12 12 -19 -24 -7 -137 17 -137 29 0 9 87 2 125
-10z m358 -7 c85 -28 147 -70 213 -142 71 -79 110 -159 134 -277 31 -147 29
-289 -5 -430 -33 -136 -80 -235 -165 -349 -76 -100 -159 -169 -266 -222 -163
-79 -278 -83 -421 -13 -114 55 -196 156 -252 311 -53 145 -63 292 -32 469 26
148 80 285 135 344 13 14 35 43 49 65 13 22 36 51 51 64 28 27 33 41 14 41
-13 1 -83 59 -76 64 43 33 50 34 85 19 29 -12 37 -12 44 -1 6 10 11 10 21 0 9
-9 7 -16 -10 -32 -26 -24 -30 -25 -53 -4 -10 9 -24 14 -31 11 -8 -3 -2 -9 15
-17 15 -7 27 -19 27 -27 0 -9 13 -4 38 16 57 45 128 78 227 105 112 31 178 32
258 5z m-5171 -6 c25 -23 23 -28 -19 -53 l-37 -22 -17 24 c-10 12 -21 19 -25
15 -4 -4 1 -17 12 -28 14 -16 16 -23 6 -26 -7 -3 -19 -12 -28 -21 -13 -12 -20
-13 -35 -4 -24 15 -36 15 -21 0 16 -16 15 -48 0 -48 -7 0 -24 9 -38 20 l-25
20 44 40 c42 39 137 99 155 100 5 0 18 -7 28 -17z m2189 -22 c31 -31 39 -46
39 -75 0 -72 -45 -126 -103 -126 -32 0 -46 7 -78 39 -34 34 -39 44 -39 86 0
40 5 52 34 81 49 49 95 48 147 -5z m2544 5 l50 -13 -30 -12 c-22 -9 -35 -10
-48 -1 -10 6 -22 8 -27 5 -13 -8 -52 14 -45 26 8 12 37 10 100 -5z m-1484 -25
c24 -24 29 -38 29 -75 0 -39 -6 -52 -34 -83 -27 -30 -41 -37 -71 -37 -30 0
-44 7 -71 37 -59 64 -57 122 5 164 50 33 105 31 142 -6z m-3993 -51 c42 -26
65 -78 56 -128 -13 -72 -66 -132 -117 -132 -38 0 -103 53 -117 95 -22 68 10
143 74 171 43 18 66 17 104 -6z m5314 -26 c21 -15 38 -29 38 -31 0 -4 -9 -15
-48 -61 l-28 -32 -29 30 c-29 30 -55 39 -55 20 0 -6 16 -20 36 -32 25 -14 34
-27 32 -41 -5 -34 -24 -30 -58 13 l-32 41 26 39 c23 35 30 39 54 34 26 -7 27
-6 9 13 -17 19 -14 33 7 33 5 0 27 -12 48 -26z m-4751 -55 c13 -21 -1 -31 -34
-25 -33 7 -57 23 -57 39 0 14 81 2 91 -14z m-70 -40 c45 -16 45 -16 24 -39
-17 -19 -18 -19 -43 0 -13 11 -31 20 -38 20 -8 0 -14 7 -14 15 0 18 25 19 71
4z m4697 -62 c21 -22 30 -39 26 -50 -5 -14 -10 -13 -42 8 -40 27 -52 31 -52
15 0 -6 16 -18 35 -27 19 -9 35 -22 35 -29 0 -22 -12 -44 -21 -38 -5 3 -9 -6
-9 -21 0 -21 -6 -36 -27 -74 -4 -6 -93 30 -93 38 0 4 6 15 13 25 12 16 14 16
39 -3 14 -12 31 -21 37 -21 20 0 -1 28 -30 40 -31 13 -39 37 -15 46 8 3 26 -2
40 -11 15 -10 26 -13 26 -6 0 6 -13 17 -30 26 -16 9 -30 18 -30 21 0 11 52 94
59 94 4 0 22 -15 39 -33z m-4733 6 c19 -9 35 -20 35 -24 0 -19 -21 -18 -57 3
-28 17 -35 18 -25 6 8 -10 22 -20 33 -23 21 -7 26 -45 6 -45 -7 0 -28 13 -46
28 -30 25 -32 31 -22 50 14 26 29 27 76 5z m-56 -80 c28 -16 42 -43 23 -43
-16 0 -72 -191 -72 -245 0 -24 -3 -26 -22 -20 -13 4 -35 9 -50 12 -16 3 -28 9
-28 13 0 13 38 22 63 15 17 -5 19 -4 7 4 -8 6 -25 11 -38 11 -17 0 -22 5 -20
18 3 13 12 16 36 14 40 -4 41 3 2 23 -39 20 -30 45 17 45 39 0 42 23 4 28 -20
3 -22 8 -17 35 9 45 19 50 50 26 36 -28 45 -17 12 16 -26 26 -32 45 -19 58 10
10 19 9 52 -10z m2458 -25 c-3 -8 -6 -5 -6 6 -1 11 2 17 5 13 3 -3 4 -12 1
-19z m1938 -3 c36 -35 35 -105 -1 -134 -37 -29 -58 -26 -93 12 -23 24 -31 42
-31 70 0 72 74 103 125 52z m-887 -41 c42 -29 17 -114 -34 -114 l-24 0 0 -136
c0 -124 -2 -135 -17 -132 -16 3 -18 19 -17 177 l0 174 28 23 c32 28 35 29 64
8z m476 -13 c36 -32 51 -81 48 -154 -1 -16 -16 -43 -36 -65 -31 -33 -39 -37
-85 -37 -41 0 -55 5 -80 29 -58 56 -64 138 -15 203 40 52 123 64 168 24z
m-1474 4 c55 -29 60 -45 60 -212 0 -124 -3 -153 -14 -153 -22 0 -26 23 -26
139 0 104 -12 171 -31 171 -5 0 -18 -9 -30 -21 -11 -11 -26 -18 -32 -16 -19 6
-20 56 -2 83 18 28 35 30 75 9z m-3108 -56 c61 -33 52 -151 -14 -185 -39 -20
-66 -17 -93 11 -72 71 19 221 107 174z m5291 -14 c27 -5 35 -27 19 -52 -12
-19 -92 14 -92 37 0 9 3 19 6 22 5 6 11 5 67 -7z m-20 -72 c27 -5 34 -24 21
-56 -4 -12 -12 -11 -50 6 -26 12 -44 28 -44 37 0 23 11 32 29 25 9 -4 28 -9
44 -12z m-2549 -35 c9 -12 16 -36 16 -53 0 -79 -80 -69 -96 12 -11 55 49 86
80 41z m-2484 -24 c0 -8 -4 -13 -10 -9 -5 3 -54 -17 -108 -44 l-99 -50 5 -123
c2 -68 6 -124 7 -126 2 -2 48 20 104 47 l101 51 -1 -32 c-1 -20 -3 -25 -6 -12
-4 19 -10 17 -103 -30 l-100 -51 0 -137 c0 -76 3 -138 8 -138 4 0 53 27 110
59 56 33 102 55 102 50 0 -10 -41 -37 -147 -98 l-73 -42 0 -118 c0 -65 3 -120
6 -124 4 -3 20 1 36 9 17 9 32 13 35 10 3 -2 -17 -16 -44 -29 -26 -14 -85 -48
-130 -75 -46 -28 -83 -47 -83 -42 0 11 54 47 123 82 l46 23 1 128 c0 70 -3
127 -6 127 -3 0 -42 -20 -86 -45 -80 -45 -114 -57 -90 -32 7 6 50 32 95 57
l82 46 -2 133 c-1 74 -4 136 -7 138 -2 3 -40 -14 -83 -36 -43 -23 -82 -41 -86
-41 -20 0 9 20 85 59 46 24 86 46 90 50 4 3 4 64 0 134 l-7 128 -84 -55 c-78
-52 -102 -62 -87 -38 13 21 366 212 391 212 8 0 15 -7 15 -16z m5044 -59 c-4
-16 -8 -31 -9 -33 -4 -5 -83 36 -89 46 -3 5 -3 17 0 28 5 19 7 20 55 5 47 -15
49 -17 43 -46z m-4741 6 c4 -4 5 -20 2 -34 -6 -23 -10 -25 -32 -16 -13 5 -35
9 -49 9 -30 0 -32 20 -1 21 16 1 18 2 5 6 -10 2 -18 11 -18 20 0 13 8 14 43 9
23 -4 46 -11 50 -15z m4689 -47 c43 -14 46 -17 46 -51 0 -33 -2 -35 -26 -30
-46 9 -83 27 -78 36 4 5 22 5 43 1 21 -5 39 -7 42 -5 4 5 1 6 -54 23 -16 5
-31 16 -33 25 -4 21 3 21 60 1z m-349 -5 c24 -11 52 -47 44 -56 -3 -2 -19 3
-36 11 -38 20 -69 10 -105 -36 -22 -27 -28 -31 -36 -18 -18 27 -6 63 29 87 37
25 67 29 104 12z m-4369 -19 c15 -5 26 -17 26 -28 0 -17 -4 -18 -50 -8 -38 7
-50 14 -50 28 0 21 33 24 74 8z m3181 -20 c343 -44 612 -133 822 -274 293
-196 484 -392 621 -637 41 -76 125 -278 146 -357 80 -293 84 -633 10 -925 -77
-305 -196 -526 -411 -763 -162 -178 -439 -359 -694 -453 -183 -67 -273 -89
-420 -101 -68 -5 -148 -12 -178 -14 -58 -5 -236 15 -361 40 -262 54 -530 172
-725 318 -276 208 -474 466 -595 776 -89 230 -115 389 -107 675 6 236 31 378
100 578 103 294 323 587 584 777 172 124 375 227 553 280 241 71 489 101 655
80z m-3167 -45 c6 -3 12 -16 12 -30 0 -15 -4 -24 -8 -21 -5 3 -27 6 -50 7 -39
3 -42 5 -42 31 0 28 1 29 38 23 20 -4 43 -8 50 -10z m4720 -12 c25 -4 32 -10
32 -29 0 -13 -1 -24 -2 -24 -2 1 -25 7 -53 14 -40 10 -51 18 -53 36 -3 20 -1
22 20 16 12 -4 38 -9 56 -13z m-5401 -150 c-2 -21 -4 -4 -4 37 0 41 2 58 4 38
2 -21 2 -55 0 -75z m685 81 c4 -3 8 -13 8 -23 0 -15 -6 -16 -41 -12 -32 5 -44
12 -51 30 -8 23 -7 23 33 17 23 -4 46 -9 51 -12z m4741 -11 c7 -4 10 -43 3
-43 -17 0 -96 42 -96 51 0 10 72 4 93 -8z m-4753 -81 c-40 -4 -60 3 -60 21 0
12 7 12 46 -2 45 -16 45 -16 14 -19z m4728 13 c49 -20 60 -49 13 -35 -15 4
-37 13 -48 19 -23 12 -41 46 -21 38 7 -3 32 -13 56 -22z m-4695 -62 c12 -7 8
-23 -5 -19 -7 3 -25 7 -40 10 -16 4 -28 11 -28 17 0 10 52 4 73 -8z m4761 -24
c8 -9 0 -10 -33 -5 -47 7 -81 22 -81 35 0 11 101 -16 114 -30z m-4766 -39 c10
0 27 -9 36 -19 18 -19 17 -19 -28 -6 -55 17 -66 23 -66 36 0 6 7 6 19 -1 11
-5 28 -10 39 -10z m4786 -30 c7 -7 -1 -10 -22 -10 -33 0 -82 18 -82 30 0 10
92 -8 104 -20z m-5487 -127 c-2 -27 -3 -5 -3 47 0 52 1 74 3 48 2 -27 2 -69 0
-95z m738 87 c18 -8 18 -9 -5 -9 -14 0 -34 4 -45 9 -18 8 -18 9 5 9 14 0 34
-4 45 -9z m4750 -5 c30 -14 30 -14 -15 -8 -25 3 -49 9 -54 14 -16 14 36 10 69
-6z m-15 -63 c-7 -3 -19 3 -28 13 -16 15 -15 16 12 4 15 -7 23 -15 16 -17z
m-4706 9 c7 -11 -22 -23 -35 -15 -5 3 -9 9 -9 15 0 12 37 12 44 0z m4766 -11
c13 -9 13 -10 0 -10 -8 0 -22 5 -30 10 -13 9 -13 10 0 10 8 0 22 -5 30 -10z
m-4729 -36 c12 -15 11 -16 -11 -9 -35 10 -49 25 -23 25 11 0 27 -7 34 -16z
m4764 -39 c14 -11 9 -10 -20 4 -22 11 -49 27 -60 36 -14 11 -9 10 20 -4 22
-11 49 -27 60 -36z m-5224 -17 c10 -18 8 -24 -6 -35 -21 -15 -45 -1 -45 27 0
36 33 41 51 8z m129 -10 c1 -23 1 -23 15 2 14 25 14 25 15 2 0 -27 -24 -39
-45 -22 -19 16 -19 40 0 40 9 0 15 -9 15 -22z m6107 -105 c-3 -10 -5 -4 -5 12
0 17 2 24 5 18 2 -7 2 -21 0 -30z m-6580 -70 c-3 -10 -5 -4 -5 12 0 17 2 24 5
18 2 -7 2 -21 0 -30z m6497 6 c29 -35 32 -58 12 -98 -27 -51 -93 -63 -116 -21
-9 17 -7 18 23 13 24 -3 36 0 48 14 37 42 25 93 -22 93 -25 0 -59 -17 -59 -30
0 -13 22 -8 35 7 17 21 39 -1 31 -31 -8 -33 -30 -43 -60 -26 -27 14 -32 53
-10 88 23 35 85 31 118 -9z m-6069 -75 c-33 -30 -73 -62 -90 -71 -27 -15 -28
-17 -11 -27 10 -6 52 -32 94 -59 l76 -47 93 92 c51 51 93 101 93 110 0 11 7
18 19 18 22 0 19 -31 -5 -51 -8 -6 -14 -19 -14 -29 0 -9 -34 -50 -76 -89 l-77
-72 34 -36 34 -35 -40 21 c-22 12 -45 21 -51 21 -6 0 -46 -39 -89 -87 -82 -94
-125 -130 -91 -77 25 39 99 133 125 161 l21 22 -63 44 c-87 62 -128 82 -137
67 -5 -8 -10 -2 -14 15 -8 30 -1 45 19 45 8 0 52 27 97 60 46 33 90 59 98 59
8 0 -12 -25 -45 -55z m1433 -80 c26 -18 28 -41 5 -66 -20 -22 -41 -23 -65 -1
-23 21 -23 38 2 63 24 24 29 24 58 4z m3782 -15 c9 -16 8 -26 -5 -45 -31 -48
-86 -15 -65 40 12 33 54 36 70 5z m1345 -45 c79 -37 76 -171 -5 -204 -37 -16
-62 -7 -99 36 -51 58 -34 147 33 174 30 12 34 12 71 -6z m-971 -15 c33 -26 52
-62 61 -116 8 -48 -7 -82 -55 -128 -26 -25 -40 -30 -80 -30 -57 0 -91 26 -121
90 -33 71 -20 127 41 179 41 34 114 36 154 5z m449 -50 c32 -25 56 -94 39
-111 -7 -7 -12 -22 -12 -34 0 -28 -54 -74 -86 -74 -77 0 -134 79 -113 155 21
75 114 110 172 64z m944 -46 c-2 -16 -4 -5 -4 22 0 28 2 40 4 28 2 -13 2 -35
0 -50z m-5721 49 c18 -11 54 -85 53 -107 0 -12 -5 -6 -11 15 -17 61 -35 73
-102 68 -69 -5 -96 -29 -96 -85 0 -28 8 -43 35 -69 19 -18 45 -35 57 -37 18
-3 16 -5 -7 -6 -108 -4 -142 164 -43 212 34 17 95 22 114 9z m-549 -52 c36
-22 56 -74 46 -122 -3 -17 -23 -48 -44 -70 -36 -38 -41 -40 -80 -35 -63 8
-110 59 -117 126 -4 47 -2 53 31 86 30 30 41 35 84 35 30 0 60 -7 80 -20z
m511 -83 c21 -3 19 -4 -10 -6 -39 -1 -43 4 -31 36 7 16 8 16 11 -4 2 -15 12
-23 30 -26z m5720 -164 c2 -9 -8 -13 -32 -13 -34 0 -44 8 -29 24 11 11 56 2
61 -11z m-6614 -106 c28 -23 28 -23 12 -55 -14 -27 -22 -32 -51 -32 -24 0 -39
7 -49 22 -21 30 -20 35 10 63 33 31 42 31 78 2z m-634 -26 c13 -33 2 -64 -30
-81 -27 -14 -37 -13 -60 10 -40 40 -13 100 45 100 27 0 35 -5 45 -29z m7164 8
c41 -24 44 -34 16 -49 -39 -21 -88 16 -74 54 8 21 16 20 58 -5z m111 -9 c0
-16 -6 -26 -17 -28 -14 -3 -18 3 -18 28 0 25 4 31 18 28 11 -2 17 -12 17 -28z
m-5459 4 c-3 -8 -6 -20 -6 -25 0 -10 -896 -11 -1029 -1 -51 4 -86 12 -88 19
-6 17 11 18 596 21 487 2 533 1 527 -14z m5222 -5 c2 -14 -21 -17 -185 -22
-103 -4 -473 -7 -820 -7 -607 0 -633 1 -633 18 0 10 3 22 7 26 5 4 372 6 818
4 731 -3 810 -5 813 -19z m-6698 -26 c62 -55 49 -145 -24 -180 -31 -14 -36
-14 -71 3 -38 18 -75 65 -75 97 0 30 29 76 58 91 42 23 78 19 112 -11z m6110
-103 c123 -15 214 -46 300 -105 171 -116 205 -256 92 -378 -66 -70 -120 -102
-247 -144 -101 -32 -123 -36 -258 -41 -168 -5 -256 6 -380 47 -139 47 -195 83
-252 160 -147 202 47 417 416 460 106 12 231 13 329 1z m-5820 -42 c25 -27 25
-33 -1 -59 -28 -28 -61 -21 -74 15 -8 24 -6 31 14 47 30 24 36 24 61 -3z
m6650 -9 c17 -31 -5 -52 -49 -45 -20 3 -133 5 -251 6 -166 0 -219 3 -233 14
-16 12 -16 14 -1 20 8 3 66 7 127 7 93 1 284 10 374 17 14 1 27 -6 33 -19z
m-5551 5 c50 -6 61 -10 61 -25 0 -18 -21 -19 -559 -19 -335 0 -562 4 -566 9
-3 5 0 13 7 18 7 4 213 10 458 13 245 3 466 7 491 8 25 1 74 -1 108 -4z m4071
-4 c13 -9 12 -12 -4 -25 -14 -11 -45 -15 -105 -15 -47 0 -130 -3 -184 -7 l-99
-6 4 24 c3 23 7 24 93 30 157 9 280 9 295 -1z m-5753 -152 c-2 -13 -4 -3 -4
22 0 25 2 35 4 23 2 -13 2 -33 0 -45z m-126 -45 c7 -18 6 -30 -1 -37 -14 -14
-30 9 -30 42 0 30 18 28 31 -5z m729 8 c21 -17 23 -22 12 -45 -6 -14 -22 -32
-36 -41 -22 -15 -27 -15 -54 -1 -46 24 -53 55 -22 86 25 25 67 25 100 1z
m6614 3 c19 -7 21 -35 4 -52 -15 -15 -55 -16 -64 -1 -4 8 -42 9 -124 4 -115
-7 -118 -7 -141 16 l-24 24 150 5 c83 3 158 7 167 8 9 1 23 -1 32 -4z m-5477
-19 c3 -9 2 -19 -2 -23 -3 -4 -253 -7 -553 -7 -502 0 -547 1 -550 17 -2 9 5
18 15 21 10 3 258 5 551 6 472 1 533 -1 539 -14z m3844 -7 c-8 -22 -15 -23
-111 -26 -104 -3 -128 4 -117 32 5 13 26 16 121 16 l115 0 -8 -22z m-5584
-185 c-3 -10 -5 -4 -5 12 0 17 2 24 5 18 2 -7 2 -21 0 -30z m7228 17 c16 -18
17 -22 4 -34 -11 -10 -51 -12 -176 -8 -159 4 -163 5 -163 26 0 19 5 21 33 19
17 -2 79 0 137 5 58 5 114 10 126 11 11 0 29 -8 39 -19z m-5516 4 c31 -5 41
-11 41 -25 0 -18 -13 -19 -247 -21 -448 -5 -903 -3 -903 3 0 36 86 42 716 47
194 1 370 0 393 -4z m3871 -24 c0 -19 -7 -20 -115 -20 -108 0 -115 1 -115 20
0 19 7 20 115 20 108 0 115 -1 115 -20z m59 -130 c-1 -51 -3 -58 -9 -35 -12
46 -12 133 0 115 5 -8 9 -44 9 -80z m1196 -47 c-3 -18 -10 -33 -15 -33 -13 0
-13 117 0 125 6 3 11 16 12 28 1 12 3 -3 5 -33 3 -30 2 -70 -2 -87z m-6965
112 c0 -8 -4 -15 -10 -15 -5 0 -10 7 -10 15 0 8 5 15 10 15 6 0 10 -7 10 -15z
m460 2 l25 -13 -3 -499 c-2 -275 -6 -519 -9 -543 -5 -41 -8 -45 -60 -68 -101
-44 -93 -75 -94 334 0 196 -4 449 -8 562 -5 113 -7 207 -5 208 7 9 81 31 104
31 14 1 36 -5 50 -12z m6469 -114 c1 -24 -3 -43 -9 -43 -6 0 -10 29 -9 68 1
49 3 60 9 42 4 -14 8 -44 9 -67z m-1096 -12 c4 -66 3 -73 -9 -56 -9 11 -14 44
-14 84 0 87 16 67 23 -28z m1055 -73 c-12 -21 -13 -14 -16 55 -2 54 1 84 10
95 11 13 13 4 16 -56 2 -45 -2 -80 -10 -94z m-1091 60 c-2 -18 -4 -4 -4 32 0
36 2 50 4 33 2 -18 2 -48 0 -65z m61 -10 l-1 -73 -7 65 c-3 36 -5 68 -3 73 10
18 13 2 11 -65z m57 -25 c5 -50 4 -73 -4 -73 -12 0 -18 21 -26 110 -6 57 -5
63 8 50 9 -9 18 -46 22 -87z m929 -55 c-3 -9 -11 -19 -19 -22 -12 -4 -15 8
-15 72 0 49 5 83 13 91 10 10 13 -1 19 -56 4 -37 5 -75 2 -85z m500 129 c11
-8 17 -23 14 -38 -3 -21 -7 -24 -38 -21 -19 2 -97 6 -173 8 -123 5 -138 7
-135 22 3 14 22 18 128 24 69 4 134 9 145 11 37 8 41 7 59 -6z m-5440 -3 c21
-8 20 -31 -1 -38 -10 -2 -96 -6 -192 -8 -158 -3 -175 -1 -185 15 -8 14 -8 20
4 27 16 11 348 14 374 4z m3816 -13 c0 -27 -18 -31 -156 -31 -114 0 -124 2
-124 18 0 10 3 22 7 25 3 4 66 7 140 7 124 0 133 -1 133 -19z m246 1 c17 -10
23 -162 7 -162 -18 0 -20 8 -28 93 -6 74 -3 85 21 69z m820 -148 c-3 -8 -12
-14 -21 -14 -12 0 -15 15 -15 79 0 55 4 81 13 84 8 3 14 -17 20 -66 4 -38 6
-76 3 -83z m-732 79 c11 -69 7 -113 -9 -113 -22 0 -35 42 -35 111 0 55 1 59
19 50 10 -6 21 -26 25 -48z m669 28 c12 -2 8 -116 -5 -129 -22 -22 -38 -13
-38 21 0 17 -2 50 -6 73 -6 44 -9 41 49 35z m-590 -80 c8 -75 3 -97 -21 -82
-8 5 -16 38 -19 86 -6 72 -5 77 13 73 16 -3 20 -16 27 -77z m511 63 c10 -25 7
-144 -3 -144 -5 0 -17 -3 -26 -6 -15 -6 -16 1 -10 72 4 43 9 82 12 87 7 12 21
8 27 -9z m-420 -41 c3 -21 6 -57 6 -80 0 -34 -4 -43 -17 -43 -33 0 -40 14 -47
88 l-7 72 29 0 c26 0 30 -4 36 -37z m351 -43 c0 -70 -1 -75 -22 -78 -22 -3
-23 -1 -23 78 0 79 1 81 23 78 21 -3 22 -8 22 -78z m-5483 54 l33 -15 -3 -287
c-2 -160 -7 -291 -12 -296 -15 -15 -102 -46 -127 -46 -23 0 -23 1 -24 148 -1
247 -9 413 -19 432 -16 30 -12 37 33 59 50 25 75 26 119 5z m5228 -64 c0 -79
0 -80 -25 -80 -30 0 -31 4 -39 93 l-7 67 36 0 35 0 0 -80z m90 0 l0 -80 -29 0
-29 0 -4 80 -3 80 33 0 32 0 0 -80z m92 13 c2 -38 1 -71 -2 -74 -3 -4 -17 -9
-31 -13 -26 -6 -26 -5 -33 65 -3 39 -4 75 -1 80 4 5 19 9 35 9 28 0 28 -1 32
-67z m-4804 -69 c12 -8 29 -29 38 -45 14 -28 14 -33 -3 -67 -24 -49 -67 -70
-102 -51 -28 16 -71 74 -71 96 0 24 66 83 92 83 13 0 34 -7 46 -16z m-1711
-16 c-3 -8 -6 -5 -6 6 -1 11 2 17 5 13 3 -3 4 -12 1 -19z m5748 -19 c9 -17 14
-38 11 -46 -6 -15 -9 -15 -73 3 -30 8 -32 -22 -3 -31 11 -3 20 -13 20 -22 0
-9 6 -13 14 -10 10 4 13 1 10 -8 -10 -25 -35 -25 -60 0 -33 33 -33 87 1 120
33 34 61 32 80 -6z m1489 15 c19 -7 22 -34 4 -34 -6 0 -22 -10 -34 -21 -41
-38 -75 1 -37 43 17 18 39 23 67 12z m117 -40 c16 -20 6 -38 -39 -66 l-32 -20
5 38 c3 22 8 45 10 52 6 17 40 15 56 -4z m-333 -50 c26 -18 26 -53 2 -64 -8
-4 -25 -12 -37 -18 -32 -17 -33 -16 -33 29 0 49 -12 44 -30 -11 -17 -50 -26
-57 -40 -29 -17 31 -4 67 33 89 39 24 75 25 105 4z m-6230 -70 c22 -15 22 -19
22 -244 l0 -230 -60 -30 c-65 -33 -95 -38 -103 -16 -3 8 -7 126 -8 262 l-2
249 24 12 c34 18 100 16 127 -3z m6561 -33 c31 -22 35 -32 18 -54 -13 -19 -75
-39 -117 -39 -22 0 -112 -59 -139 -92 -8 -10 5 -24 57 -58 93 -62 125 -77 157
-75 34 3 55 -25 39 -50 -16 -25 -44 -29 -50 -6 -4 14 -207 143 -226 143 -2 0
-31 -34 -64 -76 -32 -41 -71 -90 -86 -109 -33 -39 -35 -52 -9 -60 10 -3 22
-16 25 -28 6 -22 7 -22 21 -3 19 25 19 36 0 36 -18 0 -20 19 -2 26 21 8 85
-24 92 -46 4 -13 0 -31 -9 -45 -13 -20 -25 -25 -59 -25 -46 0 -57 8 -105 78
l-23 33 28 36 c160 206 166 216 147 227 -71 42 -198 106 -212 106 -34 0 -45
16 -38 54 9 45 21 46 47 2 26 -45 216 -147 230 -125 7 11 11 11 17 1 6 -8 36
16 103 82 100 100 107 104 158 67z m-5449 -122 c0 -5 -4 -9 -10 -9 -5 0 -10 7
-10 16 0 8 5 12 10 9 6 -3 10 -10 10 -16z m4463 -28 c30 -30 26 -71 -11 -108
-18 -17 -37 -34 -44 -36 -7 -3 -2 -6 13 -6 14 -1 30 4 37 11 8 8 12 9 12 1 0
-6 -14 -23 -31 -37 -34 -29 -80 -34 -99 -11 -11 13 -8 16 19 21 17 4 31 10 31
14 0 4 14 22 30 40 35 37 36 43 14 65 -11 10 -29 15 -53 13 -33 -3 -36 -6 -39
-38 -2 -19 -9 -42 -16 -50 -8 -8 -16 -22 -19 -30 -4 -12 -6 -11 -6 3 -1 9 -5
17 -11 17 -18 0 -22 47 -6 83 30 72 129 99 179 48z m-4925 -6 c16 -14 33 -36
36 -50 12 -47 -43 -115 -93 -115 -25 0 -77 51 -85 85 -12 47 35 104 86 105 14
0 40 -11 56 -25z m4427 1 c95 -44 156 -148 163 -277 8 -140 -38 -257 -137
-352 -50 -48 -64 -55 -117 -65 -129 -23 -211 26 -275 162 -29 61 -32 78 -33
167 -1 93 -12 106 -18 19 -2 -36 -4 -40 -29 -40 -37 0 -59 9 -59 26 0 10 6 11
26 4 32 -13 54 -13 54 -1 0 5 -14 12 -31 16 -28 6 -48 29 -36 41 3 3 19 -2 36
-11 19 -9 31 -11 31 -5 0 6 -15 17 -34 25 -32 14 -34 16 -26 51 5 19 10 38 13
41 8 7 65 -25 75 -43 8 -14 10 -13 14 8 4 21 -2 27 -39 42 -37 15 -58 36 -36
36 16 0 73 -25 73 -32 0 -4 5 -8 10 -8 25 0 6 30 -32 49 -32 15 -38 22 -25 27
9 3 32 -3 51 -14 l34 -20 27 39 c27 41 23 58 -15 71 -13 4 21 21 110 54 59 22
167 17 225 -10z m-5841 -69 c7 -19 6 -31 -1 -38 -19 -19 -43 -2 -43 29 0 50
28 56 44 9z m5511 3 c24 -9 25 -11 10 -26 -13 -14 -21 -15 -41 -5 -14 6 -30 9
-35 6 -5 -4 -9 -2 -9 4 0 10 28 30 42 31 4 0 19 -5 33 -10z m-20 -49 c10 -17
-12 -21 -25 -6 -10 12 -10 15 3 15 9 0 18 -4 22 -9z m1337 -108 c5 -77 1 -92
-29 -93 -20 0 -32 34 -34 95 -2 58 7 75 42 75 13 0 17 -15 21 -77z m-4755 -26
c16 -15 15 -18 -8 -43 -56 -60 -112 -66 -170 -17 -25 21 -28 28 -17 41 36 42
160 55 195 19z m-2087 -103 c0 -24 -4 -34 -12 -32 -15 5 -22 42 -14 64 10 25
26 5 26 -32z m1737 11 c23 -14 43 -27 43 -28 0 -2 -21 -19 -48 -39 -56 -43
-95 -55 -120 -37 -9 7 -7 3 4 -10 l22 -23 58 26 c31 14 58 25 58 24 1 -2 -1
-207 -4 -456 l-5 -453 -56 -31 c-55 -31 -58 -31 -83 -15 l-26 17 0 163 c0 89
-3 301 -7 471 -5 265 -4 308 8 301 8 -5 3 4 -10 18 -28 31 -23 50 21 77 44 27
92 25 145 -5z m353 -202 c0 -329 -12 -723 -22 -723 -4 0 -8 29 -8 63 0 55 -4
70 -30 105 -17 23 -37 42 -45 42 -9 0 -15 9 -15 24 0 14 -4 28 -10 31 -6 4
-10 -45 -10 -138 0 -123 2 -146 16 -151 8 -3 24 -1 34 4 28 15 37 12 14 -5
-25 -19 -54 -19 -82 1 l-22 15 -1 382 c0 210 -4 423 -7 473 l-7 92 38 -20 c43
-22 78 -18 117 12 14 11 28 20 33 20 4 0 7 -102 7 -227z m-927 169 c21 -21 28
-37 25 -58 l-3 -29 -22 37 c-40 69 -115 57 -127 -19 -9 -54 5 -96 38 -111 33
-17 29 -26 -6 -13 -27 10 -61 51 -72 86 -9 30 10 85 41 118 24 24 34 28 63 23
19 -3 47 -18 63 -34z m4255 -39 c-10 -2 -28 -2 -40 0 -13 2 -5 4 17 4 22 1 32
-1 23 -4z m20 -42 c3 -10 -3 -12 -29 -6 -51 11 -61 27 -15 23 22 -2 41 -9 44
-17z m1891 -37 c30 -38 27 -80 -8 -115 -35 -35 -70 -37 -99 -6 -20 21 -42 67
-42 88 0 5 11 21 25 34 35 36 96 35 124 -1z m-4972 -6 c50 -47 17 -148 -48
-148 -62 0 -92 98 -44 145 30 31 62 32 92 3z m3079 7 c18 -14 18 -14 -7 -15
-15 0 -32 7 -39 15 -10 12 -9 15 7 15 10 0 28 -7 39 -15z m1149 5 c18 -8 17
-9 -8 -9 -33 -1 -211 -76 -252 -106 -60 -45 -75 -49 -92 -26 -15 22 -43 29
-43 11 0 -6 11 -16 25 -22 28 -13 31 -21 12 -36 -9 -8 -22 -5 -45 10 l-33 21
37 38 c21 21 62 50 91 64 l54 25 19 -22 c14 -17 21 -20 30 -11 9 8 7 13 -9 18
-12 3 -21 11 -21 16 0 13 12 11 38 -6 18 -13 26 -14 44 -4 16 9 19 14 9 17 -7
2 -16 0 -20 -6 -4 -7 -13 -6 -25 4 -20 14 -17 17 29 27 35 8 139 6 160 -3z
m-1536 -36 c12 -15 21 -36 21 -48 0 -20 0 -20 -16 2 -8 12 -23 22 -33 22 -13
0 -18 7 -16 23 3 27 3 27 14 27 5 0 19 -12 30 -26z m1754 -16 c86 -40 174
-133 225 -238 77 -156 91 -318 47 -515 -29 -131 -71 -218 -159 -336 -116 -157
-238 -237 -405 -266 -82 -15 -95 -15 -156 0 -129 32 -244 129 -302 254 -50
109 -67 305 -39 453 14 69 27 111 84 271 47 132 167 271 286 331 121 62 183
79 276 76 67 -3 97 -9 143 -30z m-1358 -8 c-3 -4 2 -11 11 -14 9 -4 15 -9 12
-12 -6 -5 -68 28 -68 37 0 3 11 4 25 1 14 -2 23 -8 20 -12z m-5417 -92 c17
-17 15 -45 -3 -52 -8 -3 -15 -15 -15 -26 0 -24 -13 -26 -31 -4 -11 14 -11 18
4 29 21 15 22 25 2 25 -20 0 -19 10 3 26 21 17 25 17 40 2z m612 2 c25 -8 25
-8 2 -9 -13 -1 -42 -10 -64 -21 -23 -11 -52 -20 -65 -20 -14 0 -22 -4 -19 -9
12 -19 -20 -17 -58 2 -38 20 -38 21 -15 29 13 5 48 7 79 4 l55 -5 -38 12 c-21
7 -35 16 -31 20 10 9 122 7 154 -3z m131 -34 c157 -37 265 -172 305 -381 29
-156 -2 -399 -66 -526 -67 -131 -178 -255 -272 -302 -54 -28 -168 -57 -224
-57 -89 0 -201 61 -260 143 -79 110 -114 223 -114 371 0 104 31 300 56 347 13
25 12 27 -37 49 -27 13 -48 28 -46 34 6 19 47 18 82 -2 18 -11 36 -18 39 -15
16 16 1 30 -44 42 -27 7 -53 17 -56 22 -11 18 27 21 73 5 l47 -16 30 37 c64
79 143 156 185 181 48 28 194 81 226 81 11 1 45 -5 76 -13z m5424 -27 c19 -19
19 -19 -1 -19 -11 0 -29 7 -40 15 -21 16 -44 20 -44 7 0 -4 16 -14 35 -21 19
-7 35 -19 35 -27 0 -18 1 -18 -56 6 l-47 21 24 25 c27 29 60 26 94 -7z m-890
-1 c31 -24 55 -74 55 -115 0 -61 -73 -133 -134 -133 -60 0 -126 71 -126 137 0
31 42 103 68 118 41 22 104 19 137 -7z m-4880 -10 c14 -6 25 -16 25 -21 0 -9
-16 -7 -55 9 -17 6 -16 4 4 -12 19 -16 21 -22 10 -31 -10 -8 -26 -4 -58 12
l-44 23 29 15 c35 20 55 21 89 5z m2308 -72 c56 -40 120 -82 143 -94 38 -20
41 -23 53 -89 7 -37 21 -87 31 -110 l18 -41 -41 -97 -41 -96 -135 -99 c-125
-93 -161 -113 -161 -91 0 5 -49 41 -109 81 -115 75 -120 81 -166 199 -14 36
-34 75 -46 87 -19 21 -20 24 -5 52 9 17 25 56 37 88 29 77 83 133 209 215 57
38 106 69 108 69 1 0 49 -33 105 -74z m528 57 c11 -13 14 -82 14 -352 0 -333
0 -336 -21 -339 -32 -5 -45 18 -33 59 6 20 10 161 10 342 0 169 4 307 9 307 4
0 14 -7 21 -17z m894 -175 c10 -268 4 -433 -15 -433 -13 0 -15 42 -18 308 -2
258 0 307 12 307 11 0 15 -36 21 -182z m-3815 137 c17 -9 30 -20 30 -25 0 -15
-16 -12 -30 5 -7 8 -18 15 -26 15 -7 0 -16 5 -19 10 -9 15 12 12 45 -5z m3162
-247 c2 -125 3 -274 3 -330 l0 -103 -25 0 -25 0 4 340 c2 187 6 344 9 349 3 5
11 1 19 -9 10 -14 14 -74 15 -247z m1253 213 c28 -19 65 -48 83 -63 19 -16 45
-28 60 -28 49 0 60 -17 64 -107 3 -59 10 -88 22 -102 16 -18 16 -21 -3 -58
-14 -25 -22 -62 -24 -108 -2 -67 -4 -71 -33 -85 -17 -8 -74 -45 -126 -82 -91
-64 -122 -78 -130 -60 -1 4 -60 47 -129 94 l-126 87 -5 71 c-4 48 -11 77 -23
90 -14 15 -15 23 -6 34 7 8 15 53 18 101 6 84 7 88 36 104 28 15 141 87 216
137 19 13 39 20 45 17 6 -4 34 -23 61 -42z m1374 36 c27 -11 29 -16 18 -30
-11 -16 -15 -16 -64 0 -41 13 -50 19 -41 30 13 17 47 17 87 0z m1195 -6 c53
-59 -14 -170 -84 -141 -50 21 -65 88 -29 134 26 33 86 37 113 7z m-3393 -226
c14 -488 14 -474 -24 -459 -15 6 -17 38 -17 351 0 323 1 344 18 341 15 -3 18
-25 23 -233z m-3623 209 c62 -30 53 -60 -11 -36 -53 20 -52 19 -37 37 15 18
10 18 48 -1z m3404 14 c1 -2 5 -160 8 -353 3 -192 10 -359 14 -371 11 -30 -26
-73 -51 -58 -17 10 -18 29 -15 265 3 192 9 474 12 517 0 1 7 2 15 2 8 0 16 -1
17 -2z m2408 -58 c0 -3 -4 -11 -9 -18 -7 -12 -14 -11 -39 2 -17 9 -40 16 -52
16 -22 0 -26 10 -10 26 10 10 110 -13 110 -26z m-5825 -12 c27 -12 32 -26 12
-34 -17 -6 -90 20 -95 34 -5 16 49 16 83 0z m5750 -20 c48 -13 51 -18 34 -67
-12 -34 -33 -39 -88 -20 -47 16 -33 35 22 31 58 -4 62 13 7 28 -24 6 -40 17
-40 25 0 18 7 18 65 3z m-4647 -25 l42 -27 -23 -24 c-33 -36 -75 -55 -106 -47
-36 9 -101 52 -101 68 0 18 78 56 115 56 18 1 49 -11 73 -26z m-1145 0 c28 -5
37 -27 14 -36 -12 -4 -93 11 -106 20 -2 1 2 10 9 18 9 11 21 14 34 10 12 -4
33 -9 49 -12z m1101 -113 c20 6 38 16 41 21 21 33 25 -12 23 -257 l-3 -266
-57 -30 c-52 -27 -60 -28 -85 -16 l-28 13 -7 180 c-3 99 -9 229 -12 288 l-6
108 49 -27 c44 -24 53 -25 85 -14z m4664 23 c38 -7 47 -16 29 -31 -16 -14
-107 5 -107 22 0 19 12 27 29 20 9 -3 31 -8 49 -11z m-22 -59 c29 -11 41 -21
37 -31 -4 -10 -16 -12 -49 -7 -30 4 -44 3 -44 -5 0 -6 16 -11 35 -11 40 0 52
-17 35 -50 -12 -22 -26 -22 -77 -3 -15 6 -16 4 -5 -9 7 -9 24 -19 38 -22 23
-6 25 -11 19 -34 -3 -15 -7 -49 -7 -75 l-1 -48 -31 7 c-60 13 -65 19 -51 61 8
21 11 48 8 61 -3 13 -1 42 5 65 6 23 14 59 17 80 7 42 12 43 71 21z m-5852 -9
c34 -14 47 -37 27 -49 -5 -3 -29 1 -55 10 -40 14 -45 18 -36 35 13 23 17 23
64 4z m-9 -70 c14 -3 25 -12 25 -20 0 -11 -11 -13 -52 -8 -62 7 -62 7 -54 28
4 11 14 14 31 10 14 -3 36 -7 50 -10z m7175 -4 c15 -30 12 -49 -11 -61 -16 -9
-26 -8 -45 5 -30 19 -31 39 -2 59 30 21 45 20 58 -3z m-7160 -61 c0 -18 -7
-20 -55 -20 -48 0 -55 2 -55 20 0 18 7 20 55 20 48 0 55 -2 55 -20z m-10 -55
c0 -11 -13 -15 -54 -15 -51 0 -74 9 -59 24 3 3 30 6 60 6 40 0 53 -4 53 -15z
m-18 -80 c-4 -41 -6 -45 -26 -39 -11 4 -32 13 -46 21 -24 14 -24 14 18 9 59
-6 53 11 -8 19 -27 4 -50 10 -50 14 0 16 15 21 64 21 l51 0 -3 -45z m5828 -25
c25 0 28 -3 26 -27 -3 -23 -8 -29 -36 -31 -57 -6 -70 9 -20 23 l45 13 -42 1
c-41 1 -52 9 -36 25 4 3 13 4 21 1 7 -3 26 -5 42 -5z m-5886 -20 c54 -24 59
-40 13 -40 -37 0 -77 24 -77 46 0 19 9 18 64 -6z m4163 -7 c13 -19 12 -24 -6
-42 -25 -25 -29 -26 -60 -2 -24 18 -24 19 -7 46 20 31 52 31 73 -2z m3067 -4
c33 -15 52 -69 35 -100 -12 -24 -69 -79 -80 -79 -17 0 -49 70 -49 108 0 32 6
45 26 61 31 24 35 25 68 10z m-7220 -55 c43 -8 49 -34 8 -34 -30 0 -72 24 -72
42 0 5 6 8 14 5 8 -3 31 -9 50 -13z m5906 -23 c0 -24 -85 -29 -94 -6 -4 12 4
15 44 15 28 0 50 -4 50 -9z m-5915 -43 c47 -23 58 -38 28 -38 -23 0 -83 36
-83 50 0 14 3 13 55 -12z m5875 -28 c0 -5 -6 -10 -14 -10 -8 0 -18 5 -21 10
-3 6 3 10 14 10 12 0 21 -4 21 -10z m-5852 -52 c25 -17 40 -34 33 -36 -14 -5
-91 44 -91 58 0 15 8 12 58 -22z m5900 -5 c2 -8 -6 -13 -21 -13 -32 0 -57 9
-57 22 0 14 73 5 78 -9z m-5887 -59 c30 -15 49 -29 43 -31 -15 -5 -78 23 -94
41 -17 21 -13 20 51 -10z m5909 0 c0 -2 -17 -4 -37 -3 -33 1 -35 2 -13 8 23 7
50 4 50 -5z m-5 -44 c-27 -12 -35 -12 -35 0 0 6 12 10 28 9 24 0 25 -1 7 -9z
m-5855 -21 c27 -15 -22 -10 -55 6 l-30 15 35 -6 c19 -4 42 -10 50 -15z m30
-41 c0 -6 -6 -5 -15 2 -8 7 -15 14 -15 16 0 2 7 1 15 -2 8 -4 15 -11 15 -16z
m5894 -8 c19 -19 0 -18 -39 1 l-40 20 35 -6 c19 -3 39 -10 44 -15z m-5918 -18
c-4 -3 -14 2 -24 12 -16 18 -16 18 6 6 13 -6 21 -14 18 -18z m2678 -3 c77 -28
148 -96 188 -177 l33 -67 0 -186 0 -187 -32 -46 c-18 -26 -33 -50 -33 -54 1
-4 37 -36 80 -72 44 -36 84 -77 91 -92 14 -35 6 -69 -21 -86 -35 -22 -112 -26
-146 -9 -30 15 -117 103 -144 146 l-16 23 -39 -27 c-40 -27 -41 -27 -180 -23
-118 4 -148 8 -192 27 -65 29 -135 102 -171 179 -25 53 -27 68 -30 227 -3 155
-2 175 18 228 24 63 93 142 151 173 55 29 136 42 266 43 100 1 132 -3 177 -20z
m1064 11 l42 0 0 -323 0 -324 -30 -59 c-33 -66 -76 -112 -135 -143 -36 -19
-56 -21 -208 -21 -146 0 -173 3 -206 19 -50 26 -108 91 -140 160 l-26 56 -3
318 -3 317 95 0 96 0 0 -294 c0 -287 0 -294 23 -326 38 -56 79 -72 178 -68
101 5 128 18 161 81 22 40 23 55 26 317 1 151 5 281 8 289 3 10 15 12 42 7 20
-3 56 -6 80 -6z m271 4 l61 -7 -1 -316 c-1 -174 -4 -368 -8 -431 l-6 -115 -76
-3 c-58 -2 -79 1 -88 12 -10 12 -11 107 -5 441 l7 425 27 0 c15 0 55 -3 89 -6z
m856 -94 l3 -90 -254 0 -254 0 -11 -27 c-5 -15 -9 -50 -7 -77 l3 -51 258 -3
257 -2 0 -90 0 -90 -256 0 -256 0 4 -71 c2 -47 8 -73 18 -79 8 -6 127 -10 264
-10 l248 0 -6 -22 c-3 -13 -6 -56 -6 -96 l0 -74 -257 4 c-289 4 -285 3 -364
80 -78 76 -79 80 -75 369 4 266 7 288 52 347 52 67 50 66 354 72 151 3 277 4
279 3 2 -1 5 -43 6 -93z m-2905 0 c0 -49 -1 -91 -2 -92 -2 -1 -129 -4 -283 -7
l-279 -6 -9 -38 c-5 -21 -6 -53 -3 -72 l7 -35 152 0 c84 0 208 -3 277 -6 l125
-7 -4 -81 c-2 -45 -5 -83 -8 -86 -3 -3 -125 -5 -271 -5 l-267 -1 -3 -68 c-2
-41 2 -73 9 -82 9 -11 63 -14 290 -14 l279 0 0 -90 0 -91 -346 3 -346 3 -22
26 c-23 26 -23 32 -27 330 -3 167 -2 347 1 399 l5 95 45 6 c25 3 188 7 363 7
l317 2 0 -90z m3261 -1 c41 -51 89 -111 107 -135 19 -24 38 -44 43 -44 5 0 59
61 120 135 l112 135 79 0 c61 0 80 -3 85 -15 10 -28 -95 -183 -224 -332 -35
-40 -63 -75 -63 -79 0 -3 40 -54 88 -113 48 -58 117 -142 152 -186 35 -44 67
-82 70 -85 3 -3 14 -15 25 -28 26 -31 9 -42 -70 -42 -128 0 -121 -4 -256 166
-67 85 -125 154 -129 154 -4 0 -10 -6 -13 -14 -3 -8 -56 -78 -118 -155 l-112
-141 -99 0 c-112 0 -110 -5 -38 80 25 30 68 84 95 120 27 36 80 102 118 148
l69 83 -18 27 c-10 15 -45 61 -79 102 -70 86 -225 295 -225 304 0 3 46 6 103
6 l103 0 75 -91z m1883 85 c22 -8 20 -27 -4 -49 -32 -29 -78 6 -50 40 13 16
29 19 54 9z m-7039 -34 c3 -6 -1 -7 -9 -4 -18 7 -21 14 -7 14 6 0 13 -4 16
-10z m7125 -19 c0 -12 -20 -25 -27 -18 -7 7 6 27 18 27 5 0 9 -4 9 -9z m-210
-53 c0 -18 -42 -58 -61 -58 -31 0 -30 17 2 44 32 28 59 34 59 14z m87 -64 c2
-7 -4 -19 -13 -28 -23 -23 -49 -3 -33 26 11 20 40 21 46 2z m-6167 -3 c0 -4
-19 -40 -41 -80 l-42 -71 44 -40 c36 -32 41 -41 29 -49 -10 -7 -23 -3 -47 15
-17 13 -34 24 -37 24 -2 0 -26 -31 -52 -70 -56 -84 -91 -98 -45 -17 74 129 75
134 26 171 -19 15 -35 33 -35 41 0 29 23 26 56 -6 39 -37 32 -41 85 44 27 41
59 63 59 38z m5889 -35 c10 -11 7 -17 -11 -30 -12 -9 -26 -16 -30 -16 -13 0
-9 48 5 53 20 9 24 8 36 -7z m-6129 -80 c0 -18 -15 -33 -65 -65 -39 -24 -69
-51 -75 -66 -15 -41 -12 -49 13 -31 80 59 107 69 107 39 0 -11 -27 -35 -65
-61 -44 -28 -65 -49 -65 -62 0 -30 37 -25 90 10 37 25 46 27 48 14 5 -23 -23
-49 -84 -79 -81 -39 -84 -36 -84 95 l0 110 38 26 c81 54 137 92 140 93 1 1 2
-10 2 -23z m-752 -22 c24 -16 29 -53 12 -85 -7 -13 -21 -19 -45 -19 -38 0 -55
20 -55 64 0 24 32 56 55 56 6 0 21 -7 33 -16z m532 -219 c0 -128 -1 -135 -20
-135 -19 0 -20 7 -20 123 0 117 7 147 32 147 4 0 8 -61 8 -135z m-80 -26 l0
-122 -44 -43 c-50 -51 -73 -54 -110 -17 -22 22 -26 34 -22 56 3 16 6 60 6 98
0 50 4 69 13 69 10 0 14 -24 16 -92 1 -51 4 -95 6 -97 8 -7 53 9 78 30 26 20
27 24 27 123 0 56 3 106 7 109 18 19 23 -3 23 -114z m6791 65 c10 -13 10 -17
-2 -25 -19 -12 -49 -11 -49 1 0 6 5 10 10 10 6 0 10 7 10 15 0 19 14 19 31 -1z
m-978 -14 c-17 -7 -23 -18 -23 -40 0 -28 -2 -30 -32 -26 -40 4 -44 15 -18 49
17 21 30 27 58 26 32 0 34 -1 15 -9z m-6013 -86 c0 -30 -3 -34 -19 -29 -13 4
-35 -8 -71 -36 l-53 -41 6 -56 c7 -67 17 -80 51 -64 32 14 58 54 66 100 l6 37
13 -55 12 -55 -40 -37 c-28 -26 -49 -38 -70 -38 -46 0 -61 30 -61 121 l0 77
47 38 c55 46 95 74 106 74 4 0 7 -16 7 -36z m-200 -82 c0 -13 -29 -36 -77 -62
-45 -25 -58 -47 -48 -79 6 -19 7 -19 52 4 43 23 63 25 63 5 0 -4 -23 -23 -51
-41 -49 -31 -76 -70 -63 -90 3 -6 34 6 70 26 36 19 67 35 69 35 14 0 1 -30
-22 -52 -37 -33 -130 -88 -137 -81 -3 4 -6 63 -6 132 l0 126 68 42 c69 44 82
49 82 35z m847 -157 c-19 -84 25 -122 87 -74 34 27 34 5 0 -26 -33 -31 -55
-31 -81 -2 -31 32 -39 91 -19 122 9 14 18 25 20 25 2 0 -1 -20 -7 -45z m5392
-129 c9 -11 8 -18 -4 -30 -20 -19 -26 -20 -50 -2 -24 17 -13 46 18 46 14 0 30
-6 36 -14z m96 -36 c10 -11 15 -26 11 -37 -6 -15 -10 -13 -26 12 -31 47 -20
64 15 25z m-4545 -117 c0 -3 -12 -26 -26 -51 -15 -25 -27 -59 -28 -76 -2 -42
-20 -40 -24 3 -2 19 -14 49 -28 66 -40 53 -28 77 13 28 l23 -28 28 32 c25 31
42 41 42 26z m523 -21 c36 -38 36 -80 -1 -115 -35 -34 -66 -34 -97 -2 -35 34
-33 76 6 114 38 38 58 39 92 3z m854 11 c3 -8 -11 -13 -39 -15 -36 -2 -44 -7
-46 -25 -3 -20 1 -23 33 -23 44 0 44 -22 -1 -30 -23 -4 -30 -11 -32 -33 -2
-15 -8 -27 -13 -27 -10 0 -13 153 -3 162 10 11 97 3 101 -9z m163 10 c0 -15
-16 -33 -31 -33 -17 0 -19 -8 -19 -65 0 -37 -4 -65 -10 -65 -6 0 -10 27 -10
62 0 56 -3 65 -27 85 l-28 23 62 -2 c35 -2 63 -4 63 -5z m451 -26 c6 -11 9
-36 5 -55 -3 -19 -1 -43 5 -53 6 -12 6 -19 0 -19 -5 0 -13 9 -16 20 -3 11 -12
20 -20 20 -7 0 -20 3 -29 6 -13 5 -16 -1 -16 -26 0 -18 -4 -29 -10 -25 -5 3
-10 39 -10 80 0 69 2 74 23 77 34 6 57 -3 68 -25z m366 -5 c27 -32 29 -59 8
-89 -16 -22 -90 -52 -101 -40 -3 3 -8 42 -11 87 l-6 82 44 -7 c30 -4 51 -15
66 -33z m1071 -36 c43 -96 39 -133 -6 -56 -23 40 -32 49 -32 33 0 -19 -41 -73
-55 -73 -13 0 -3 45 16 71 11 16 23 45 26 64 3 19 8 35 12 35 3 0 21 -33 39
-74z m172 54 c24 -24 26 -76 5 -107 -19 -27 -74 -48 -80 -30 -2 7 -5 42 -7 79
-3 54 -1 68 12 72 33 9 51 5 70 -14z m310 -71 c0 -43 -3 -79 -7 -79 -5 1 -27
26 -50 57 l-43 57 0 -55 c0 -38 -3 -50 -10 -39 -12 18 -13 140 -2 140 10 0 75
-75 84 -98 4 -9 7 11 7 46 1 39 5 61 11 57 6 -3 10 -42 10 -86z m-4292 64 c2
-9 -8 -13 -31 -13 -39 0 -67 -21 -67 -50 0 -41 49 -62 91 -40 23 13 25 3 2
-22 -24 -26 -60 -22 -94 11 -37 37 -37 65 1 102 23 23 37 30 62 27 17 -2 33
-9 36 -15z m178 -8 c13 -20 14 -31 5 -56 -7 -21 -7 -37 -1 -49 17 -32 12 -45
-10 -25 -11 10 -20 24 -20 32 0 7 -11 13 -25 13 -21 0 -25 -5 -25 -31 0 -17
-4 -28 -10 -24 -11 7 -14 148 -3 158 3 4 21 7 39 7 25 0 38 -7 50 -25z m378
-4 c13 -25 13 -31 0 -49 -8 -12 -30 -24 -50 -28 -29 -5 -36 -12 -42 -38 l-6
-31 -7 40 c-5 22 -8 61 -8 88 l-1 47 50 0 c44 0 51 -3 64 -29z m176 18 c0 -6
-9 -13 -19 -16 -17 -4 -21 -17 -27 -75 -8 -82 -24 -73 -24 14 0 48 -3 58 -20
63 -38 12 -20 25 35 25 33 0 55 -4 55 -11z m490 -49 c-15 -28 -12 -39 9 -33
12 3 20 -2 23 -14 7 -27 -1 -43 -23 -43 -10 0 -19 -4 -19 -10 0 -18 -28 -11
-59 16 -37 31 -39 46 -8 67 18 13 19 18 8 26 -8 5 -11 16 -8 25 8 20 27 21 27
2 0 -17 27 -29 36 -15 3 5 2 16 -3 22 -4 7 0 4 9 -6 13 -14 15 -24 8 -37z
m290 14 l45 -44 3 45 c4 65 22 45 21 -23 -1 -95 -8 -101 -54 -40 l-40 52 -8
-54 c-4 -30 -9 -56 -11 -58 -3 -2 -6 35 -8 82 -2 47 -1 86 2 86 3 0 25 -21 50
-46z m700 35 c0 -6 -9 -13 -20 -16 -17 -5 -20 -14 -20 -65 0 -37 -4 -57 -10
-53 -5 3 -10 29 -10 56 0 40 -5 55 -22 70 l-23 18 53 1 c31 0 52 -4 52 -11z
m333 -52 c37 -83 35 -90 -14 -64 l-40 22 -19 -23 c-37 -44 -40 -17 -5 36 19
30 35 62 35 73 0 34 15 19 43 -44z m317 -5 c0 -31 -5 -64 -10 -72 -7 -10 -10
9 -10 63 0 50 4 76 10 72 6 -3 10 -32 10 -63z m170 21 c0 26 5 47 10 47 6 0
10 -28 10 -65 0 -82 -15 -91 -64 -38 l-35 38 -1 -37 c0 -20 -5 -40 -11 -44 -7
-4 -9 16 -5 67 2 41 5 76 6 79 0 3 21 -17 45 -45 l45 -50 0 48z m187 31 c2 -7
-6 -10 -22 -7 -14 3 -32 0 -40 -7 -18 -15 -20 -71 -3 -88 21 -21 38 -13 38 18
0 23 4 30 20 30 29 0 35 -25 15 -56 -13 -20 -23 -25 -48 -22 -26 2 -36 10 -50
40 -17 34 -17 39 -3 67 9 16 21 32 28 35 21 8 61 2 65 -10z m267 -6 c9 -12 16
-33 16 -45 0 -19 -8 -25 -44 -34 -40 -10 -45 -15 -49 -43 -3 -21 -4 -16 -6 19
0 28 -4 67 -7 88 l-7 37 41 0 c31 0 45 -5 56 -22z m98 -10 c0 -18 1 -48 0 -65
-1 -33 -1 -33 49 -33 33 0 48 -4 44 -11 -4 -5 -31 -9 -61 -7 l-54 3 0 72 c0
42 4 73 10 73 6 0 11 -15 12 -32z m877 18 c11 -12 6 -15 -31 -18 -42 -3 -43
-4 -46 -41 -4 -43 11 -67 40 -67 16 0 19 5 13 29 -7 32 4 45 29 35 22 -9 20
-34 -6 -61 -28 -30 -53 -29 -83 2 -32 31 -32 66 1 104 28 33 64 40 83 17z
m-360 -43 c-1 -21 -4 -51 -8 -68 -7 -28 -7 -26 -13 18 -3 27 -3 57 -1 68 9 33
23 21 22 -18z"/>
<path d="M6185 8901 c-6 -4 -53 -31 -106 -59 -107 -55 -195 -110 -222 -136
-13 -13 -17 -34 -17 -82 0 -36 4 -64 10 -64 6 0 10 7 10 15 0 8 30 30 68 49
37 19 107 64 155 100 49 36 95 70 104 74 8 5 16 29 19 60 5 50 -1 62 -21 43z"/>
<path d="M6253 8857 l-3 -52 181 -124 c99 -68 182 -122 184 -120 2 2 5 37 6
77 3 62 1 76 -15 87 -27 21 -333 185 -342 185 -5 0 -10 -24 -11 -53z"/>
<path d="M6155 8723 c-22 -15 -96 -61 -164 -103 -69 -41 -124 -79 -124 -85 1
-14 323 -205 345 -205 3 0 3 33 0 73 -3 49 -11 81 -24 100 -18 25 -19 30 -5
45 11 12 16 44 19 110 2 50 1 92 -2 92 -3 0 -23 -12 -45 -27z"/>
<path d="M6250 8735 c9 -10 9 -15 1 -15 -15 0 -14 -90 1 -140 7 -22 19 -40 25
-40 19 0 16 -14 -6 -34 -30 -27 -42 -68 -39 -124 l3 -52 110 62 c168 93 200
112 225 129 23 15 21 16 -101 95 -192 124 -250 156 -219 119z"/>
<path d="M5824 8371 c3 -60 9 -117 12 -125 3 -8 22 -25 42 -37 56 -33 318
-169 325 -169 4 0 7 51 7 114 l0 113 -62 33 c-35 19 -91 51 -125 72 -35 20
-95 54 -134 74 l-72 36 7 -111z"/>
<path d="M6595 8455 c-16 -14 -100 -59 -185 -101 -85 -42 -158 -81 -163 -88
-9 -14 -7 -225 2 -231 7 -4 130 61 313 166 l77 43 3 118 c2 74 -1 118 -7 118
-5 -1 -23 -12 -40 -25z"/>
<path d="M6970 8677 c-77 -38 -74 -171 4 -222 23 -15 27 -15 65 4 55 29 71 55
71 119 0 46 -4 58 -29 83 -32 32 -69 37 -111 16z m66 -88 c17 -19 17 -23 3
-47 -17 -32 -50 -40 -69 -17 -11 13 -11 22 3 50 19 40 36 44 63 14z"/>
<path d="M3253 8628 c-46 -48 -49 -108 -7 -157 61 -73 164 -11 164 99 0 88
-95 123 -157 58z m85 -50 c18 -18 14 -53 -8 -73 -18 -17 -21 -17 -45 -1 -30
20 -31 26 -4 60 22 28 39 32 57 14z"/>
<path d="M5307 8540 c-5 -19 15 -50 32 -50 15 0 31 25 31 47 0 19 -5 23 -29
23 -20 0 -30 -6 -34 -20z"/>
<path d="M4868 8535 c-16 -35 0 -79 29 -83 31 -5 60 51 44 84 -15 34 -58 32
-73 -1z"/>
<path d="M2724 8488 c-4 -6 -3 -8 4 -4 5 3 13 0 15 -6 3 -8 6 -6 6 5 1 19 -14
23 -25 5z"/>
<path d="M7980 8347 l0 -134 43 -30 c44 -31 189 -113 200 -113 4 0 7 66 7 148
l0 147 -115 58 c-63 31 -120 57 -125 57 -6 0 -10 -52 -10 -133z"/>
<path d="M8252 8197 l3 -152 70 -35 c39 -19 96 -50 128 -68 l57 -33 0 151 0
151 -53 24 c-29 12 -88 44 -130 69 l-78 45 3 -152z"/>
<path d="M8528 8053 c-2 -80 -1 -149 2 -154 3 -5 46 -29 95 -55 50 -25 105
-55 123 -66 l32 -20 0 154 0 154 -72 35 c-39 19 -95 48 -124 65 l-53 32 -3
-145z"/>
<path d="M8250 7879 l0 -149 53 -26 c28 -15 84 -46 124 -70 39 -24 73 -44 75
-44 2 0 4 65 5 145 1 140 0 146 -20 159 -12 7 -70 40 -129 74 l-108 60 0 -149z"/>
<path d="M8530 7725 l0 -144 28 -19 c15 -11 69 -40 120 -66 l92 -46 0 52 c0
29 3 96 6 148 l6 95 -46 19 c-26 10 -83 38 -126 61 l-80 43 0 -143z"/>
<path d="M8250 7562 l0 -147 124 -73 c69 -39 126 -72 128 -72 5 0 3 288 -2
293 -3 2 -43 26 -90 52 -47 27 -102 59 -122 72 l-38 23 0 -148z"/>
<path d="M8532 7402 l3 -147 75 -38 c41 -21 94 -49 118 -62 l42 -24 0 62 c0
34 3 99 7 144 l6 83 -67 30 c-37 16 -94 45 -127 65 l-60 35 3 -148z"/>
<path d="M8250 7245 l0 -144 33 -17 c17 -9 74 -44 125 -77 51 -33 94 -58 95
-56 2 2 1 70 -1 150 l-4 145 -61 34 c-34 19 -90 51 -124 72 l-63 38 0 -145z"/>
<path d="M8525 7088 l2 -143 54 -29 c30 -16 83 -45 119 -65 36 -20 67 -37 70
-38 3 -2 5 63 5 143 l0 145 -125 65 c-68 35 -125 64 -126 64 -1 0 -1 -64 1
-142z"/>
<path d="M8244 7044 c3 -9 6 -74 6 -144 l0 -129 118 -71 c65 -38 124 -70 131
-70 10 0 12 9 7 31 -3 17 -6 84 -6 148 l0 116 -118 68 c-120 69 -149 79 -138
51z"/>
<path d="M8527 6778 c3 -79 6 -148 8 -154 3 -10 191 -126 226 -139 15 -5 16
11 18 147 l2 154 -52 25 c-29 13 -87 43 -128 67 -41 23 -75 42 -76 42 -1 0 0
-64 2 -142z"/>
<path d="M2753 8153 c-15 -5 -17 -61 -4 -81 6 -10 19 -11 45 -7 44 9 50 17 42
61 -6 31 -10 34 -39 33 -18 0 -38 -3 -44 -6z"/>
<path d="M3000 8100 c-25 -25 -25 -37 -1 -50 27 -14 27 -14 41 19 20 49 -4 67
-40 31z"/>
<path d="M3117 8062 c-25 -28 -22 -60 7 -68 14 -3 30 -3 35 1 17 10 13 50 -7
69 -18 15 -20 15 -35 -2z"/>
<path d="M2512 8044 c-23 -16 -30 -58 -12 -69 13 -8 69 24 84 48 21 33 -32 49
-72 21z"/>
<path d="M2720 7984 c-91 -24 -152 -60 -223 -131 -121 -122 -163 -197 -192
-342 -33 -161 -4 -299 95 -449 98 -148 199 -199 372 -190 114 7 186 42 287
138 60 57 78 82 117 166 54 117 80 211 89 319 7 91 -11 198 -44 261 -27 52
-126 154 -181 187 -92 54 -213 69 -320 41z m154 -166 c3 -13 3 -39 0 -58 l-6
-35 41 0 c51 -1 96 -41 112 -98 14 -52 5 -87 -36 -134 l-34 -40 38 -18 c46
-20 61 -49 61 -116 0 -95 -59 -171 -144 -183 l-46 -7 0 -55 c0 -51 -1 -54 -25
-54 -24 0 -25 3 -25 55 0 57 -3 61 -47 49 -20 -6 -23 -13 -23 -60 0 -53 0 -54
-30 -54 -29 0 -30 1 -30 51 l0 51 -67 -7 c-38 -4 -71 -8 -74 -9 -8 -1 -9 2 -9
59 l0 45 43 0 44 0 6 107 c4 58 7 155 7 215 l0 108 -50 0 c-48 0 -49 1 -56 35
-3 20 -4 38 -1 41 3 3 40 5 82 6 l77 0 -6 60 -7 59 33 -3 c33 -3 33 -3 36 -62
3 -54 4 -58 25 -52 12 3 27 6 32 6 6 0 9 19 7 45 -5 61 2 75 37 75 21 0 30 -6
35 -22z"/>
<path d="M2765 7633 l-40 -4 0 -79 c0 -66 3 -79 15 -76 8 3 41 7 72 11 69 8
105 33 114 81 5 26 2 40 -11 54 -18 20 -45 22 -150 13z"/>
<path d="M2766 7393 l-49 -4 5 -90 c3 -49 7 -91 9 -93 6 -5 139 23 172 36 53
21 65 91 22 133 -25 26 -36 27 -159 18z"/>
<path d="M3210 7925 l-24 -26 26 -25 c25 -25 26 -26 52 -9 32 21 33 49 4 69
-29 21 -30 20 -58 -9z"/>
<path d="M2369 7909 c-57 -40 -69 -57 -69 -92 0 -24 4 -28 23 -25 23 3 91 93
82 108 -3 4 2 10 10 14 16 6 21 26 7 26 -5 0 -29 -14 -53 -31z"/>
<path d="M3340 7714 c-13 -34 -13 -38 8 -57 30 -28 44 -21 37 16 -15 76 -28
87 -45 41z"/>
<path d="M2223 7660 c-27 -11 -53 -84 -35 -102 17 -17 42 -1 57 37 16 37 20
75 8 74 -5 0 -18 -4 -30 -9z"/>
<path d="M3363 7503 c-8 -3 -13 -24 -13 -54 l0 -49 34 0 c30 0 34 4 40 31 13
64 8 79 -21 78 -16 0 -34 -3 -40 -6z"/>
<path d="M2173 7440 c-20 -8 -23 -17 -23 -60 0 -54 8 -60 55 -38 23 10 26 17
23 57 -3 49 -15 57 -55 41z"/>
<path d="M3286 7350 c-4 -51 -6 -94 -3 -96 3 -3 8 36 12 86 4 50 5 93 2 96 -2
3 -8 -36 -11 -86z"/>
<path d="M2204 7197 c-3 -9 -4 -28 -2 -44 2 -20 8 -28 23 -28 17 0 20 7 20 40
0 30 -4 41 -18 43 -9 2 -20 -3 -23 -11z"/>
<path d="M3327 7193 c-3 -5 0 -19 5 -33 10 -24 11 -24 18 -5 11 31 -8 63 -23
38z"/>
<path d="M3154 7053 c-47 -57 -108 -120 -149 -151 l-30 -23 33 18 c19 10 51
36 72 58 74 77 123 135 117 141 -2 3 -22 -16 -43 -43z"/>
<path d="M3200 7039 c-12 -22 -5 -89 9 -89 4 0 20 13 36 30 24 25 26 32 15 45
-26 32 -48 37 -60 14z"/>
<path d="M2370 7043 c0 -5 10 -18 23 -29 l22 -19 -20 25 c-11 14 -21 27 -22
29 -2 2 -3 0 -3 -6z"/>
<path d="M2296 6991 c-27 -29 -17 -55 22 -59 40 -4 51 18 28 53 -20 30 -28 31
-50 6z"/>
<path d="M2427 6964 c31 -43 121 -111 174 -129 58 -21 148 -30 195 -19 34 7
25 9 -61 14 -122 7 -183 32 -270 111 -43 39 -53 46 -38 23z"/>
<path d="M3079 6880 c-68 -20 -87 -52 -56 -94 13 -18 17 -16 61 27 59 56 57
86 -5 67z"/>
<path d="M2917 6864 c-3 -3 -23 -12 -44 -19 -21 -8 -29 -14 -18 -14 21 0 98
38 79 39 -6 0 -13 -3 -17 -6z"/>
<path d="M2520 6766 c0 -14 0 -29 0 -33 0 -5 12 -8 28 -8 23 0 27 4 27 30 0
25 -4 30 -27 33 -24 3 -28 0 -28 -22z"/>
<path d="M2767 6783 c-15 -4 -17 -14 -15 -56 3 -51 3 -52 33 -49 45 5 56 20
53 66 -3 36 -6 41 -28 43 -14 0 -33 -1 -43 -4z"/>
<path d="M7403 8124 c-8 -4 -13 -24 -13 -51 l0 -46 37 6 c43 7 54 21 51 62 -3
26 -7 30 -33 32 -16 1 -36 0 -42 -3z"/>
<path d="M7630 8051 c0 -31 22 -51 55 -51 13 0 16 8 13 38 -3 34 -6 37 -35 40
-31 3 -33 1 -33 -27z"/>
<path d="M7720 8016 c0 -14 5 -28 10 -31 6 -4 17 -22 25 -41 15 -38 43 -45 69
-18 20 19 9 38 -49 84 -46 36 -55 37 -55 6z"/>
<path d="M7219 8008 c-1 -7 0 -19 1 -27 1 -8 -4 -17 -11 -22 -8 -4 -10 -12 -5
-16 11 -12 56 44 50 62 -7 18 -34 20 -35 3z"/>
<path d="M7394 7961 c-97 -25 -261 -163 -317 -268 -111 -208 -84 -513 57 -655
65 -65 122 -91 206 -92 61 0 73 3 144 44 99 57 180 142 242 256 56 104 83 204
86 329 2 49 6 92 10 95 3 3 -7 38 -23 77 -36 84 -102 158 -176 193 -51 26
-169 36 -229 21z m83 -220 c25 -36 66 -87 90 -113 24 -26 43 -51 43 -55 0 -4
-39 -33 -87 -64 l-86 -55 -52 26 c-28 14 -78 36 -112 49 l-61 23 54 66 c54 66
134 209 134 241 1 9 7 1 15 -18 9 -18 36 -63 62 -100z m148 -233 c-10 -37
-118 -248 -127 -248 -4 0 -4 8 -1 18 6 15 5 15 -11 3 -19 -16 -46 -75 -46
-100 1 -13 3 -13 15 3 8 11 15 16 15 12 0 -14 -45 -126 -50 -125 -6 0 -93 107
-130 159 -45 62 -78 128 -85 171 -8 45 -7 46 50 3 17 -12 58 -36 93 -53 l62
-31 94 80 c51 44 99 91 106 105 17 31 23 32 15 3z"/>
<path d="M7467 7341 l-67 -69 0 -74 c0 -108 14 -112 27 -7 12 93 17 104 87
183 25 28 30 36 23 36 -2 0 -34 -31 -70 -69z"/>
<path d="M7234 7353 c3 -21 16 -26 36 -13 13 9 13 11 0 20 -23 15 -39 12 -36
-7z"/>
<path d="M7145 7948 c-59 -32 -84 -81 -48 -95 20 -8 83 60 83 89 0 21 -7 22
-35 6z"/>
<path d="M7856 7827 c-20 -15 -14 -62 11 -71 21 -9 53 12 53 34 0 48 -27 64
-64 37z"/>
<path d="M6976 7708 c-13 -31 -27 -138 -19 -138 2 0 13 19 24 43 11 23 26 53
34 67 21 36 19 60 -6 60 -13 0 -24 -11 -33 -32z"/>
<path d="M7842 7550 c0 -19 2 -27 5 -17 2 9 2 25 0 35 -3 9 -5 1 -5 -18z"/>
<path d="M7887 7544 c-4 -4 -7 -31 -7 -61 l0 -53 34 0 c42 0 43 2 47 65 l4 50
-35 3 c-20 2 -39 0 -43 -4z"/>
<path d="M7843 7425 c0 -27 2 -38 4 -22 2 15 2 37 0 50 -2 12 -4 0 -4 -28z"/>
<path d="M6895 7420 c-3 -6 -3 -30 1 -55 4 -33 11 -45 23 -45 28 0 41 21 41
67 0 41 -1 43 -29 43 -17 0 -33 -5 -36 -10z"/>
<path d="M7826 7344 c-4 -14 -5 -28 -3 -31 3 -2 8 8 11 23 4 14 5 28 3 31 -3
2 -8 -8 -11 -23z"/>
<path d="M7840 7245 c0 -47 9 -56 30 -30 15 18 6 61 -15 69 -12 4 -15 -4 -15
-39z"/>
<path d="M7764 7195 c-17 -35 -25 -60 -18 -54 13 11 57 109 52 115 -3 2 -18
-25 -34 -61z"/>
<path d="M7804 7148 c-12 -13 -32 -42 -44 -65 -13 -24 -26 -43 -30 -43 -3 0
-21 -13 -39 -28 -30 -25 -33 -30 -22 -51 15 -28 7 -39 -14 -21 -15 12 -15 11
-3 -15 l12 -28 34 39 c19 22 40 53 48 69 7 17 24 40 38 53 25 23 51 83 44 103
-2 5 -13 0 -24 -13z"/>
<path d="M6954 7136 c-13 -33 0 -61 30 -64 27 -3 28 -2 21 25 -12 48 -40 69
-51 39z"/>
<path d="M7675 7067 c-28 -29 -63 -62 -80 -75 l-30 -23 32 20 c17 12 36 21 41
21 6 0 26 19 45 43 66 82 62 89 -8 14z"/>
<path d="M7061 6961 c-17 -30 -13 -59 8 -71 48 -25 72 4 44 53 -23 38 -39 44
-52 18z"/>
<path d="M7520 6950 c-9 -6 -10 -10 -3 -10 6 0 15 5 18 10 8 12 4 12 -15 0z"/>
<path d="M7240 6918 c51 -25 164 -30 214 -9 44 18 27 21 -39 7 -60 -12 -77
-11 -195 18 -14 3 -5 -4 20 -16z"/>
<path d="M7181 6861 c-16 -30 -13 -48 8 -54 11 -3 22 -2 25 1 11 11 6 50 -8
61 -12 10 -17 8 -25 -8z"/>
<path d="M7402 6868 c-7 -7 -12 -29 -12 -50 0 -42 16 -49 65 -26 25 11 32 38
19 72 -7 19 -55 21 -72 4z"/>
<path d="M2420 8160 c0 -5 7 -10 16 -10 8 0 12 5 9 10 -3 6 -10 10 -16 10 -5
0 -9 -4 -9 -10z"/>
<path d="M4556 8124 c-25 -24 -20 -69 10 -93 14 -11 32 -17 40 -14 36 13 45
80 16 106 -23 21 -46 22 -66 1z"/>
<path d="M5612 8114 c-13 -9 -22 -26 -22 -40 0 -37 28 -84 50 -84 43 0 68 91
34 124 -19 20 -34 20 -62 0z"/>
<path d="M1637 8048 c-18 -14 -47 -78 -47 -103 0 -23 46 -65 70 -65 12 0 35
13 51 29 23 23 29 39 29 70 0 66 -56 103 -103 69z"/>
<path d="M6970 8010 c33 -26 52 -25 21 0 -13 11 -28 20 -35 20 -6 0 0 -9 14
-20z"/>
<path d="M6467 7753 c-4 -3 -7 -15 -7 -25 0 -22 26 -24 34 -2 10 25 -10 45
-27 27z"/>
<path d="M1473 7648 c-28 -31 -37 -66 -23 -83 18 -21 36 -18 65 10 29 30 32
57 9 79 -20 21 -27 20 -51 -6z"/>
<path d="M4200 7532 c0 -5 6 -17 14 -28 12 -15 17 -16 27 -7 10 10 9 15 -1 28
-13 16 -40 21 -40 7z"/>
<path d="M4940 7329 c-278 -27 -621 -159 -870 -334 -82 -58 -244 -219 -332
-330 -189 -238 -298 -524 -323 -850 -3 -44 -9 -93 -12 -110 -3 -19 -2 -26 4
-20 6 6 18 74 27 153 26 221 118 495 219 652 57 89 191 266 241 319 114 120
374 283 596 374 116 48 306 96 431 108 57 6 127 13 154 16 110 11 495 -63 652
-126 140 -56 286 -144 460 -278 l127 -98 -38 -6 c-70 -11 -81 -64 -22 -100 48
-29 84 -13 95 42 l7 33 59 -83 c139 -193 214 -327 268 -476 50 -142 107 -455
107 -593 0 -95 -37 -310 -75 -442 -51 -177 -150 -372 -265 -525 -147 -194
-249 -287 -466 -421 -154 -94 -283 -148 -459 -193 -275 -69 -445 -75 -680 -26
-346 72 -575 173 -798 351 -225 179 -335 317 -461 579 -96 197 -124 289 -151
482 -9 59 -18 109 -21 112 -15 14 11 -183 36 -289 46 -187 127 -369 241 -541
68 -103 265 -307 379 -393 229 -172 534 -290 866 -337 144 -20 171 -21 280
-11 144 14 330 51 457 93 198 65 439 214 611 380 247 237 384 474 470 814 40
156 49 251 43 445 -8 247 -41 411 -124 610 -89 215 -194 360 -389 542 -261
243 -503 372 -819 437 -240 49 -349 57 -525 40z"/>
<path d="M5067 7242 c-23 -26 -21 -55 6 -80 29 -27 47 -28 81 -1 30 23 33 45
10 77 -19 28 -74 30 -97 4z"/>
<path d="M4985 7099 c-136 -5 -190 -12 -268 -33 -184 -49 -331 -118 -512 -239
-82 -55 -311 -287 -367 -372 -121 -184 -212 -428 -239 -642 -52 -412 125 -906
425 -1190 178 -169 303 -249 522 -337 384 -155 853 -138 1229 45 134 65 325
210 449 340 108 114 151 172 219 299 110 204 147 355 154 626 6 225 -3 310
-52 478 -70 238 -174 404 -377 602 -128 125 -184 168 -316 244 -127 72 -232
112 -392 148 -159 35 -246 41 -475 31z m356 -119 c224 -41 395 -112 586 -247
34 -23 64 -43 68 -43 7 0 145 -112 145 -117 0 -2 -11 4 -25 13 -33 21 -32 15
6 -32 62 -78 49 -77 -32 3 -148 143 -352 277 -500 327 -70 24 -267 73 -345 86
-39 7 -99 10 -135 7 -162 -15 -240 -27 -319 -52 -47 -14 -105 -32 -130 -40
-167 -50 -331 -149 -504 -305 -215 -194 -320 -385 -396 -717 -7 -33 -17 -53
-26 -53 -46 0 26 241 134 450 87 167 107 194 226 313 82 82 130 119 242 188
76 48 162 96 189 108 76 34 261 93 350 112 117 25 322 24 466 -1z m-215 -40
c22 0 54 -38 54 -65 0 -56 -88 -71 -112 -19 -10 21 -8 30 11 57 l22 32 -24
-27 c-19 -21 -27 -24 -31 -13 -6 17 33 47 52 40 8 -3 20 -5 28 -5z m-174 -9
c-11 -6 -10 -10 5 -16 16 -6 15 -8 -7 -17 -14 -5 -70 -15 -125 -23 -65 -9
-104 -20 -111 -30 -6 -8 -17 -15 -23 -15 -20 0 -89 -39 -185 -104 -50 -34
-108 -71 -130 -81 -41 -22 -117 -95 -165 -162 -33 -46 -64 -61 -86 -43 -26 21
-17 37 63 114 113 110 238 203 341 255 68 35 266 101 345 116 89 16 94 17 78
6z m88 -43 c0 -6 11 -26 26 -45 l25 -33 -30 0 c-21 0 -31 5 -31 15 0 8 -7 15
-15 15 -10 0 -15 10 -15 30 0 23 4 30 20 30 11 0 20 -5 20 -12z m-1012 -358
c-7 -10 -14 -17 -17 -15 -4 4 18 35 25 35 2 0 -1 -9 -8 -20z m1799 -32 c13
-22 17 -312 4 -336 l-12 -22 -535 0 -534 0 2 -162 3 -163 496 -3 497 -2 6 -31
c3 -17 6 -91 6 -165 0 -161 0 -161 -103 -177 -15 -2 -211 -1 -435 3 -224 4
-422 5 -440 3 l-32 -6 2 -156 3 -156 385 -6 c212 -3 454 -7 538 -8 l152 -1 0
-157 c0 -87 -4 -164 -9 -172 -17 -27 -138 -30 -745 -24 l-599 6 -33 30 c-19
16 -38 45 -44 67 -7 24 -9 317 -8 836 l3 799 225 5 c124 3 444 7 712 8 380 2
489 -1 495 -10z m419 -85 c9 -15 28 -39 41 -53 28 -30 110 -184 136 -255 32
-84 57 -196 57 -247 0 -82 -22 -52 -46 63 -39 182 -109 356 -185 456 -21 29
-39 55 -39 58 0 14 20 2 36 -22z m-2428 -745 c30 -25 -3 -98 -45 -98 -26 0
-53 31 -53 61 0 49 56 70 98 37z m2650 6 c42 -12 15 -94 -32 -94 -44 0 -63 52
-30 84 17 17 27 19 62 10z m-2680 -361 c59 -241 199 -469 403 -657 177 -162
506 -308 759 -336 128 -14 148 -20 95 -31 -141 -28 -496 86 -742 238 -151 93
-337 302 -441 495 -88 164 -161 418 -120 418 11 0 24 -35 46 -127z m2679 49
c-15 -192 -162 -467 -355 -665 -72 -74 -249 -208 -347 -262 -140 -78 -281
-120 -449 -135 -143 -12 -148 2 -7 23 155 22 305 68 414 125 109 57 282 185
364 269 164 168 293 403 343 626 27 119 45 129 37 19z m-1309 -954 c22 -22 14
-67 -14 -80 -43 -20 -81 21 -63 70 9 25 56 31 77 10z"/>
<path d="M6422 5639 c2 -6 8 -10 13 -10 5 0 11 4 13 10 2 6 -4 11 -13 11 -9 0
-15 -5 -13 -11z"/>
<path d="M5110 4381 c0 -5 7 -14 15 -21 13 -10 15 -9 15 9 0 12 -6 21 -15 21
-8 0 -15 -4 -15 -9z"/>
<path d="M3918 6799 c-26 -15 -24 -83 2 -109 26 -26 36 -25 65 6 27 29 33 75
12 92 -20 17 -61 23 -79 11z"/>
<path d="M3434 5663 c-19 -44 -8 -77 30 -95 20 -9 30 -8 51 6 51 33 21 126
-41 126 -19 0 -28 -8 -40 -37z"/>
<path d="M6664 5675 c-26 -40 1 -115 42 -115 48 0 77 107 35 130 -32 17 -60
12 -77 -15z"/>
<path d="M3895 4600 c-21 -33 -24 -44 -14 -56 17 -21 62 -17 88 7 20 19 21 23
8 42 -7 11 -23 27 -35 35 -19 13 -23 11 -47 -28z"/>
<path d="M6250 4605 l-24 -26 25 -25 c22 -22 30 -24 59 -17 44 12 47 24 15 62
-32 38 -44 39 -75 6z"/>
<path d="M5068 4132 c-34 -20 -34 -29 -5 -73 28 -43 55 -47 90 -15 67 62 -6
138 -85 88z"/>
<path d="M8302 6398 c-28 -36 -20 -102 14 -115 22 -8 64 39 64 71 0 42 -54 72
-78 44z"/>
<path d="M7290 6414 c-71 -44 -87 -129 -36 -183 35 -37 74 -40 122 -11 43 27
55 63 37 116 -24 71 -78 106 -123 78z m50 -121 c0 -8 -4 -12 -9 -9 -5 4 -11 1
-13 -5 -5 -14 -38 0 -38 16 0 14 27 24 48 17 6 -2 12 -11 12 -19z"/>
<path d="M7741 6334 c-12 -15 -21 -36 -21 -48 0 -25 26 -66 43 -66 16 0 67 51
67 67 0 8 5 11 11 7 6 -3 4 7 -5 24 -25 49 -64 56 -95 16z"/>
<path d="M1438 5959 c-10 -5 -18 -19 -18 -30 0 -16 6 -20 28 -17 21 2 27 8 27
27 0 28 -13 35 -37 20z"/>
<path d="M7918 5763 c7 -3 16 -2 19 1 4 3 -2 6 -13 5 -11 0 -14 -3 -6 -6z"/>
<path d="M7730 5753 c-255 -33 -412 -151 -370 -277 47 -144 221 -223 473 -214
117 4 125 6 197 42 97 50 151 94 180 149 22 41 23 48 11 88 -15 51 -85 124
-144 153 -95 44 -253 72 -347 59z m240 -111 c13 -11 20 -24 16 -30 -4 -7 -39
-29 -77 -51 -67 -36 -69 -39 -43 -45 50 -13 169 -75 181 -94 11 -18 6 -21 -65
-36 -119 -25 -241 -24 -347 3 -49 13 -100 25 -112 27 -37 7 -26 31 20 48 23 8
67 25 97 36 30 11 64 20 75 20 10 0 -21 21 -70 46 -99 50 -115 61 -115 77 0 6
30 8 88 4 86 -7 87 -7 124 -47 36 -40 36 -41 51 -19 20 28 77 66 108 72 43 8
46 7 69 -11z"/>
<path d="M7749 5494 c-9 -8 -34 -22 -55 -30 -38 -14 -37 -14 51 -11 50 1 110
-2 135 -6 43 -8 42 -7 -28 27 -85 41 -83 41 -103 20z"/>
<path d="M7425 5713 c-47 -25 -74 -49 -114 -99 -31 -41 -36 -53 -36 -104 0
-71 32 -122 109 -175 51 -35 190 -86 231 -84 11 0 -4 7 -33 15 -84 22 -155 60
-206 110 -49 49 -86 110 -86 141 1 57 75 154 148 192 20 11 33 20 27 20 -5 0
-23 -7 -40 -16z"/>
<path d="M8190 5672 c0 -5 8 -16 17 -23 9 -8 29 -34 45 -58 15 -25 28 -40 28
-35 0 14 -53 96 -73 113 -9 7 -17 9 -17 3z"/>
<path d="M8240 5396 c-14 -14 -65 -48 -115 -77 -49 -28 -78 -48 -62 -45 76 17
215 108 206 134 -3 8 -13 3 -29 -12z"/>
<path d="M7653 5243 c9 -2 23 -2 30 0 6 3 -1 5 -18 5 -16 0 -22 -2 -12 -5z"/>
<path d="M7778 5233 c7 -3 16 -2 19 1 4 3 -2 6 -13 5 -11 0 -14 -3 -6 -6z"/>
<path d="M1771 4258 c-1 -74 4 -79 49 -52 24 15 24 15 2 10 -18 -3 -25 1 -33
21 -5 13 -7 28 -4 33 3 4 1 19 -4 32 -8 18 -10 8 -10 -44z"/>
<path d="M2100 4318 c0 -16 3 -17 23 -7 31 16 31 16 2 21 -20 4 -25 1 -25 -14z"/>
<path d="M8686 4741 c-16 -17 -16 -19 5 -24 41 -11 71 22 33 37 -21 8 -19 9
-38 -13z"/>
<path d="M2765 4576 c-23 -34 -13 -58 21 -54 35 4 53 31 38 56 -17 27 -41 26
-59 -2z"/>
<path d="M7035 4610 c-3 -5 -20 -13 -38 -18 -22 -6 -27 -10 -16 -14 9 -4 28 4
45 18 16 13 26 23 22 24 -4 0 -10 -4 -13 -10z"/>
<path d="M7093 4545 c-95 -48 -147 -144 -148 -275 0 -135 41 -216 132 -257 54
-25 55 -25 101 -8 67 26 127 86 169 172 32 65 36 83 36 147 0 61 -5 84 -27
131 -55 112 -152 145 -263 90z m47 -135 c0 -25 6 -63 12 -85 l13 -40 3 40 c1
22 7 64 13 93 l10 52 44 0 c36 0 48 -5 69 -31 14 -17 26 -34 26 -39 0 -11
-143 -120 -157 -120 -6 0 -13 -4 -15 -10 -3 -11 -158 106 -158 120 0 22 58 72
90 79 43 9 50 1 50 -59z m-59 -165 c60 -37 61 -38 55 -74 -3 -20 -6 -54 -6
-76 l0 -41 -41 4 c-22 2 -38 7 -35 9 3 3 -10 21 -29 40 -27 27 -34 40 -29 59
5 18 2 24 -10 24 -12 0 -16 11 -16 49 0 45 1 48 25 46 13 -2 52 -20 86 -40z
m215 36 c-3 -5 1 -14 9 -21 22 -18 18 -50 -12 -110 -20 -38 -43 -65 -77 -88
l-49 -34 5 80 c4 44 10 87 14 95 5 9 29 31 54 51 44 34 67 45 56 27z"/>
<path d="M6838 4379 c20 -21 14 -33 -8 -14 -11 10 -22 16 -25 13 -3 -3 5 -12
19 -21 13 -9 26 -13 30 -10 12 12 6 31 -11 38 -15 5 -16 4 -5 -6z"/>
<path d="M3041 3460 c-1 -58 -4 -121 -6 -140 -8 -50 5 -64 49 -56 56 11 61 22
58 119 -2 48 -7 85 -12 82 -4 -3 -10 4 -13 15 -3 11 -12 20 -20 20 -9 0 -18 8
-20 18 -4 14 -5 14 -7 -3 -1 -15 -5 -11 -15 15 -13 33 -14 29 -14 -70z"/>
<path d="M8672 4108 c-6 -6 -12 -25 -12 -40 0 -21 5 -28 19 -28 27 0 53 28 49
54 -3 24 -37 33 -56 14z"/>
<path d="M3699 4074 c-15 -19 -2 -47 26 -52 25 -5 38 13 31 42 -7 30 -36 35
-57 10z"/>
<path d="M7888 4123 c6 -2 18 -2 25 0 6 3 1 5 -13 5 -14 0 -19 -2 -12 -5z"/>
<path d="M7730 4071 c0 -6 -9 -11 -20 -11 -11 0 -20 -4 -20 -10 0 -12 40 -13
58 -1 10 6 10 10 -3 21 -10 8 -15 9 -15 1z"/>
<path d="M7650 4030 c20 -13 53 -13 45 0 -3 6 -18 10 -33 10 -21 0 -24 -2 -12
-10z"/>
<path d="M7932 4037 c-7 -8 -9 -29 -5 -51 6 -36 7 -37 42 -34 35 3 36 4 39 51
l3 47 -34 0 c-19 0 -39 -6 -45 -13z"/>
<path d="M8140 3999 c-7 -11 -9 -27 -6 -35 10 -27 86 -12 86 17 0 15 -32 39
-50 39 -11 0 -24 -9 -30 -21z"/>
<path d="M8247 3963 c-13 -13 -7 -64 8 -70 18 -6 55 23 55 43 0 22 -48 42 -63
27z"/>
<path d="M7756 3898 c-32 -41 -18 -62 19 -28 24 23 34 60 16 60 -5 0 -21 -15
-35 -32z"/>
<path d="M7901 3868 c-39 -20 -95 -63 -142 -108 -181 -178 -230 -436 -125
-666 40 -86 126 -136 237 -137 166 -2 341 159 428 393 61 165 62 266 4 380
-56 113 -130 161 -258 168 -75 4 -84 2 -144 -30z m99 -130 c30 -45 76 -108
102 -141 l48 -60 -46 -28 c-25 -16 -67 -49 -93 -74 l-47 -44 -2 137 c0 75 -5
153 -9 172 -6 22 -7 -27 -5 -128 3 -91 0 -168 -5 -173 -5 -5 -41 5 -88 26 -44
19 -88 35 -97 35 -10 0 -18 2 -18 5 0 2 21 37 48 78 26 40 69 119 97 175 27
56 52 102 55 102 3 0 30 -37 60 -82z m162 -310 c-10 -24 -37 -72 -60 -107 -23
-35 -67 -113 -98 -174 l-57 -110 -15 29 c-8 16 -57 81 -108 144 -94 118 -122
166 -105 183 9 9 196 -68 209 -87 4 -6 12 -60 18 -121 l11 -110 2 109 1 108
72 67 c76 70 141 122 146 116 2 -2 -5 -23 -16 -47z"/>
<path d="M8347 3820 c-16 -24 -11 -70 8 -70 44 0 61 43 29 74 -20 20 -20 20
-37 -4z"/>
<path d="M7641 3790 c-32 -32 -40 -63 -19 -76 15 -9 80 62 76 83 -5 28 -24 25
-57 -7z"/>
<path d="M7541 3557 c-6 -15 -13 -40 -16 -55 -4 -19 1 -15 16 16 11 24 18 49
16 55 -3 7 -10 -1 -16 -16z"/>
<path d="M8443 3552 l-33 -3 0 -60 0 -59 30 0 c36 0 42 12 38 76 -3 49 -3 49
-35 46z"/>
<path d="M7470 3331 c-19 -46 -10 -85 20 -89 35 -3 50 9 56 50 11 63 -52 95
-76 39z"/>
<path d="M8312 3242 c-13 -37 -25 -78 -28 -92 l-5 -25 15 25 c15 26 50 150 44
156 -2 1 -14 -27 -26 -64z"/>
<path d="M8342 3178 c-14 -31 -16 -47 -9 -56 9 -11 13 -11 24 4 12 16 19 94 8
94 -2 0 -13 -19 -23 -42z"/>
<path d="M8235 3099 c-4 -6 -5 -12 -2 -15 2 -3 7 2 10 11 7 17 1 20 -8 4z"/>
<path d="M8257 3075 c-9 -20 -17 -48 -17 -63 l0 -27 18 21 c9 12 27 27 40 33
27 14 29 47 3 61 -27 14 -25 14 -44 -25z"/>
<path d="M7546 3033 c10 -40 14 -41 14 -5 0 18 -5 32 -10 32 -6 0 -8 -11 -4
-27z"/>
<path d="M7585 2997 c-4 -25 -5 -52 -3 -59 3 -7 8 11 13 40 4 29 5 56 2 59 -3
2 -9 -16 -12 -40z"/>
<path d="M7650 3023 c0 -5 17 -25 38 -45 43 -41 142 -78 210 -78 46 0 161 50
212 91 27 22 10 16 -30 -11 -44 -30 -139 -60 -189 -60 -75 0 -147 26 -197 72
-24 22 -44 36 -44 31z"/>
<path d="M8170 2952 c0 -30 4 -42 15 -42 28 0 33 33 8 59 l-23 24 0 -41z"/>
<path d="M7640 2905 c-14 -41 -7 -55 25 -55 13 0 27 -4 30 -10 3 -5 11 -10 18
-10 8 0 8 3 0 11 -7 7 -9 25 -6 42 5 22 1 33 -12 44 -29 21 -43 16 -55 -22z"/>
<path d="M7915 2880 c-28 -4 -38 -8 -22 -8 25 -2 27 -5 27 -47 0 -38 3 -45 19
-45 40 0 71 19 71 42 0 41 -12 68 -29 66 -9 0 -38 -4 -66 -8z"/>
<path d="M1877 3949 c7 -7 15 -10 18 -7 3 3 -2 9 -12 12 -14 6 -15 5 -6 -5z"/>
<path d="M2022 3874 c-13 -9 -22 -26 -22 -40 0 -23 3 -25 38 -22 35 3 37 5 40
41 3 30 0 37 -15 37 -10 0 -29 -7 -41 -16z"/>
<path d="M2200 3840 c-14 -26 -5 -40 23 -40 32 0 50 15 45 36 -5 28 -54 31
-68 4z"/>
<path d="M2276 3793 c-9 -23 14 -34 32 -16 13 13 13 16 1 24 -20 13 -26 11
-33 -8z"/>
<path d="M1828 3730 c-42 -36 -77 -94 -66 -106 10 -9 68 48 94 93 15 24 24 46
22 49 -3 2 -25 -14 -50 -36z"/>
<path d="M1974 3724 c-71 -42 -156 -123 -190 -181 -14 -23 -39 -81 -56 -130
-28 -80 -30 -96 -25 -178 6 -107 26 -174 73 -237 44 -61 80 -79 173 -85 104
-7 157 16 244 105 86 90 137 191 157 315 13 82 -2 214 -31 272 -41 82 -74 113
-146 135 -94 29 -129 26 -199 -16z m110 -120 c28 -37 70 -88 94 -115 25 -28
43 -51 41 -53 -2 -2 -14 -8 -26 -15 -12 -6 -49 -33 -81 -60 -32 -27 -67 -51
-79 -55 -13 -4 -48 6 -99 29 -43 20 -80 37 -82 39 -7 8 166 296 178 295 3 0
27 -29 54 -65z m157 -259 c-5 -21 -40 -87 -77 -147 -36 -60 -79 -136 -96 -170
-16 -33 -33 -57 -37 -52 -4 5 -32 38 -61 74 -30 36 -76 90 -103 119 -58 64
-68 87 -55 122 l9 27 72 -29 c40 -16 85 -40 100 -52 27 -21 29 -28 34 -120 3
-53 10 -97 15 -97 5 0 6 45 2 103 l-7 102 79 66 c88 73 126 100 132 95 2 -2
-1 -21 -7 -41z"/>
<path d="M2034 3505 c0 -60 1 -84 3 -52 2 32 2 81 0 110 -2 29 -3 3 -3 -58z"/>
<path d="M2310 3741 c0 -3 18 -33 40 -66 22 -33 40 -68 40 -78 0 -23 18 -57
30 -57 16 0 12 57 -5 74 -8 8 -15 21 -15 28 0 34 -40 96 -65 100 -14 3 -25 2
-25 -1z"/>
<path d="M1708 3573 c-22 -5 -39 -61 -26 -87 12 -23 23 -12 41 42 15 44 13 51
-15 45z"/>
<path d="M2433 3433 c-25 -5 -36 -38 -27 -82 13 -64 77 -27 72 42 -3 42 -9 47
-45 40z"/>
<path d="M1606 3275 c-9 -56 -1 -85 24 -85 27 0 42 33 38 83 -3 37 -6 42 -29
45 -24 3 -27 -1 -33 -43z"/>
<path d="M2362 3240 c0 -14 2 -19 5 -12 2 6 2 18 0 25 -3 6 -5 1 -5 -13z"/>
<path d="M2352 3103 c-2 -26 -38 -50 -45 -30 -3 6 -4 1 -2 -13 3 -32 15 -60
25 -60 14 0 31 57 27 91 -2 19 -5 24 -5 12z"/>
<path d="M2231 2994 c-25 -32 -111 -101 -142 -113 -22 -9 -22 -10 -3 -10 22
-1 147 97 164 129 15 28 5 25 -19 -6z"/>
<path d="M2249 2956 c-14 -30 -4 -76 16 -76 24 0 40 45 27 75 -15 32 -29 32
-43 1z"/>
<path d="M1789 2923 c10 -19 9 -23 -3 -23 -15 0 -56 -45 -56 -62 0 -4 11 -13
25 -20 36 -16 59 5 51 50 -4 28 -2 33 10 28 9 -3 28 -9 42 -12 22 -4 20 -2 -8
11 -19 9 -43 24 -54 33 -18 16 -18 16 -7 -5z"/>
<path d="M2030 2841 c-20 -5 -26 -14 -28 -41 -4 -54 8 -65 52 -46 35 14 37 18
34 53 -3 40 -14 47 -58 34z"/>
<path d="M2199 2833 c-13 -16 -12 -17 4 -4 9 7 17 15 17 17 0 8 -8 3 -21 -13z"/>
<path d="M3985 3838 c-89 -62 -177 -133 -186 -150 -6 -11 -21 -48 -34 -83
l-22 -63 58 -6 c101 -12 189 -47 189 -76 0 -7 -177 24 -222 40 -16 5 -28 8
-28 6 0 -1 9 -20 19 -42 10 -21 25 -58 32 -82 14 -47 29 -62 153 -148 l79 -55
-6 103 c-4 57 -10 113 -13 126 -5 18 -2 22 19 22 15 0 31 9 41 24 25 39 131
86 197 87 31 1 62 -2 69 -6 9 -5 10 -2 6 13 -4 11 -15 50 -25 86 -19 68 -23
74 -116 139 -24 18 -63 45 -85 61 -22 16 -43 27 -45 24 -10 -9 15 -199 30
-235 15 -36 15 -38 -7 -55 -34 -25 -56 -28 -78 -10 -18 16 -19 20 -4 80 8 37
14 97 12 142 l-3 78 -30 -20z"/>
<path d="M4325 3511 c-6 -5 -57 -19 -115 -31 -58 -12 -112 -28 -120 -36 -10
-10 -16 -48 -20 -139 -3 -69 -3 -125 -1 -125 2 0 24 17 50 39 25 21 74 57 108
80 33 23 64 49 68 59 9 23 55 155 55 159 0 6 -16 3 -25 -6z"/>
<path d="M5983 3760 c-43 -33 -88 -67 -100 -77 -19 -15 -23 -30 -25 -88 l-3
-70 55 -5 c35 -3 72 -15 102 -33 82 -48 78 -70 -6 -38 -58 22 -166 42 -166 32
1 -27 33 -119 51 -144 12 -18 60 -62 105 -99 l84 -68 0 120 c0 89 3 120 13
120 6 0 45 22 85 50 40 27 92 55 115 61 23 6 48 13 55 15 13 4 8 85 -9 131 -8
23 -13 26 -129 102 -68 45 -75 48 -78 29 -5 -30 17 -148 35 -185 19 -41 13
-57 -28 -78 -27 -14 -34 -15 -45 -3 -12 11 -12 35 -4 133 5 66 10 128 10 138
0 32 -37 18 -117 -43z"/>
<path d="M6260 3457 c-52 -23 -100 -45 -107 -50 -6 -4 -14 -46 -18 -95 -4 -48
-9 -95 -11 -104 -9 -30 12 -21 112 48 100 70 107 79 118 159 4 28 9 58 12 68
7 24 2 22 -106 -26z"/>
<path d="M8681 3827 c-6 -6 -11 -24 -11 -39 0 -21 5 -28 20 -28 22 0 43 32 34
54 -8 20 -29 27 -43 13z"/>
<path d="M8657 3204 c-12 -12 -8 -51 6 -62 20 -17 59 14 55 41 -3 22 -45 36
-61 21z"/>
<path d="M3880 2654 c-50 -45 -60 -81 -60 -214 0 -126 9 -163 52 -207 38 -39
68 -49 173 -58 44 -4 91 -9 105 -12 24 -5 23 -4 -11 33 -69 73 -73 101 -19
129 45 23 85 11 136 -41 l43 -44 7 46 c4 26 4 100 1 165 -6 129 -20 173 -69
214 -28 24 -35 25 -174 25 l-144 0 -40 -36z"/>
<path d="M1430 2525 c-18 -21 -5 -45 24 -45 31 0 40 14 26 40 -13 24 -33 26
-50 5z"/>
<path d="M3782 1714 c-27 -19 -28 -55 -2 -79 18 -17 21 -17 45 -1 27 18 34 63
13 84 -16 16 -29 15 -56 -4z"/>
<path d="M5250 1700 c0 -16 7 -20 31 -20 24 0 30 3 25 16 -3 9 -6 18 -6 20 0
2 -11 4 -25 4 -18 0 -25 -5 -25 -20z"/>
<path d="M5617 1723 c-4 -3 -7 -28 -7 -55 0 -40 3 -48 18 -48 41 0 69 69 40
98 -13 13 -41 16 -51 5z"/>
<path d="M6870 1702 c0 -78 36 -110 60 -53 18 45 10 66 -28 69 -26 3 -32 0
-32 -16z"/>
<path d="M3062 1718 c-22 -22 -14 -48 13 -48 30 0 43 24 25 45 -15 18 -22 19
-38 3z"/>
<path d="M3430 1700 c0 -14 7 -20 23 -20 30 0 40 10 26 27 -18 20 -49 16 -49
-7z"/>
<path d="M4106 1644 c-8 -21 1 -34 25 -34 21 0 25 20 7 38 -16 16 -25 15 -32
-4z"/>
<path d="M5450 1688 c0 -9 5 -20 11 -23 17 -11 20 0 4 21 -13 17 -14 17 -15 2z"/>
<path d="M6370 1706 c0 -21 5 -26 26 -26 21 0 25 4 22 23 -2 14 -11 23 -25 25
-19 3 -23 -1 -23 -22z"/>
</g>
</svg>
